<?xml version="1.0" encoding="UTF-8" standalone="no"?>
<!DOCTYPE svg PUBLIC "-//W3C//DTD SVG 1.1//EN" "http://www.w3.org/Graphics/SVG/1.1/DTD/svg11.dtd">
<svg width="100%" height="100%" viewBox="0 0 19 20" version="1.1" xmlns="http://www.w3.org/2000/svg" xmlns:xlink="http://www.w3.org/1999/xlink" xml:space="preserve" xmlns:serif="http://www.serif.com/" style="fill-rule:evenodd;clip-rule:evenodd;stroke-linecap:round;stroke-linejoin:round;stroke-miterlimit:1.5;">
    <g transform="matrix(1,0,0,1,-943.042818,-475.386474)">
        <g id="Small-Blue-Sparkle" serif:id="Small Blue Sparkle" transform="matrix(0.436109,0,0,0.436109,675.328059,318.42473)">
            <path d="M634.885,360.871C637.108,360.733 637.537,370.729 640.956,374.209C644.375,377.689 655.198,379.13 655.397,381.752C655.578,384.122 646.772,385.669 642.621,388.589C642.181,388.899 641.448,389.555 641.448,389.555C637.937,393.035 636.516,402.648 634.461,402.632C632.405,402.617 632.385,392.866 629.114,389.463C625.842,386.059 615.081,384.616 614.832,382.212C614.583,379.807 624.276,378.594 627.618,375.037C630.96,371.48 632.662,361.009 634.885,360.871Z" style="fill:rgb(117,203,239);stroke:rgb(117,203,239);stroke-width:1.91px;"/>
        </g>
    </g>
</svg>
