<svg version="1.2" xmlns="http://www.w3.org/2000/svg" viewBox="0 0 1144 1144" width="1144" height="1144">
	<style>
		.s0 { fill: #0c043d } 
		.s1 { fill: #e5faf2 } 
		.s2 { fill: #ee3782 } 
		.s3 { fill: #74caf2 } 
		.s4 { fill: #fbf5a3 } 
		.s5 { fill: #f39e0f } 
		.s6 { fill: #ffda47 } 
	</style>
	<g id="_Artboards_">
	</g>
	<g id="Layer 1">
		<g id="&lt;Group&gt;">
			<path id="&lt;Path&gt;" class="s0" d="m-342 1144h-1144v-1144h1144z"/>
			<path id="&lt;Path&gt;" class="s1" d="m-1284.5 179.33c0 1.98-1.6 3.58-3.58 3.58-1.97 0-3.57-1.6-3.57-3.58 0-1.97 1.6-3.57 3.57-3.57 1.98 0 3.58 1.6 3.58 3.57z"/>
			<path id="&lt;Path&gt;" class="s1" d="m-1403.9 78.52c0 1.98-1.6 3.58-3.58 3.58-1.97 0-3.57-1.6-3.57-3.58 0-1.97 1.6-3.57 3.57-3.57 1.98 0 3.58 1.6 3.58 3.57z"/>
			<path id="&lt;Path&gt;" class="s2" d="m-1371.73 376.66c0 1.98-1.6 3.58-3.57 3.58-1.98 0-3.58-1.6-3.58-3.58 0-1.97 1.6-3.57 3.58-3.57 1.97 0 3.57 1.6 3.57 3.57z"/>
			<path id="&lt;Path&gt;" class="s1" d="m-1183.99 116.09c0 1.97-1.6 3.57-3.58 3.57-1.97 0-3.57-1.6-3.57-3.57 0-1.98 1.6-3.58 3.57-3.58 1.98 0 3.58 1.6 3.58 3.58z"/>
			<path id="&lt;Path&gt;" class="s1" d="m-890.81 30.28c0 1.97-1.61 3.57-3.58 3.57-1.97 0-3.57-1.6-3.57-3.57 0-1.97 1.6-3.57 3.57-3.57 1.97 0 3.58 1.6 3.58 3.57z"/>
			<path id="&lt;Path&gt;" class="s3" d="m-367.38 344.91c0 1.98-1.6 3.58-3.58 3.58-1.97 0-3.57-1.6-3.57-3.58 0-1.97 1.6-3.57 3.57-3.57 1.98 0 3.58 1.6 3.58 3.57z"/>
			<path id="&lt;Path&gt;" class="s2" d="m-888.67 1117.19c0 1.97-1.6 3.57-3.57 3.57-1.98 0-3.58-1.6-3.58-3.57 0-1.98 1.6-3.58 3.58-3.58 1.97 0 3.57 1.6 3.57 3.58z"/>
			<path id="&lt;Path&gt;" class="s3" d="m-373.82 249.81c0 1.97-1.6 3.57-3.57 3.57-1.98 0-3.58-1.6-3.58-3.57 0-1.98 1.6-3.58 3.58-3.58 1.97 0 3.57 1.6 3.57 3.58z"/>
			<path id="&lt;Path&gt;" class="s3" d="m-717.05 901.95c0 1.98-1.6 3.58-3.58 3.58-1.97 0-3.57-1.6-3.57-3.58 0-1.97 1.6-3.57 3.57-3.57 1.98 0 3.58 1.6 3.58 3.57z"/>
			<path id="&lt;Path&gt;" class="s4" d="m-746.37 1057.12c0 1.98-1.6 3.58-3.57 3.58-1.98 0-3.58-1.6-3.58-3.58 0-1.97 1.6-3.57 3.58-3.57 1.97 0 3.57 1.6 3.57 3.57z"/>
			<path id="&lt;Path&gt;" class="s5" d="m-1466.82 184.34c0-1.19 0.96-2.15 2.15-2.15 1.18 0 2.14 0.96 2.14 2.15 0 1.18-0.96 2.14-2.14 2.14-1.19 0-2.15-0.96-2.15-2.14z"/>
			<path id="&lt;Path&gt;" class="s2" d="m-1263.77 52.07c0 1.58-1.28 2.86-2.86 2.86-1.58 0-2.86-1.28-2.86-2.86 0-1.58 1.28-2.86 2.86-2.86 1.58 0 2.86 1.28 2.86 2.86z"/>
			<path id="&lt;Path&gt;" class="s1" d="m-1048.42 261.96c-19.45 2.53-21.49 4.58-24.02 24.02-2.53-19.44-4.58-21.49-24.02-24.02 19.44-2.53 21.49-4.57 24.02-24.02 2.53 19.45 4.57 21.49 24.02 24.02z"/>
			<path id="&lt;Path&gt;" class="s1" d="m-1339.56 64.22c0 1.19-0.96 2.15-2.14 2.15-1.19 0-2.15-0.96-2.15-2.15 0-1.18 0.96-2.14 2.15-2.14 1.18 0 2.14 0.96 2.14 2.14z"/>
			<path id="&lt;Path&gt;" class="s1" d="m-919.07 388.19c0 0.84-0.68 1.52-1.52 1.52-0.84 0-1.52-0.68-1.52-1.52 0-0.84 0.68-1.52 1.52-1.52 0.84 0 1.52 0.68 1.52 1.52z"/>
			<path id="&lt;Path&gt;" class="s4" d="m-701.81 106.41c0 0.84-0.68 1.52-1.52 1.52-0.84 0-1.52-0.68-1.52-1.52 0-0.84 0.68-1.52 1.52-1.52 0.84 0 1.52 0.68 1.52 1.52z"/>
			<path id="&lt;Path&gt;" class="s2" d="m-780.36 59.31c0 0.84-0.68 1.52-1.52 1.52-0.84 0-1.52-0.68-1.52-1.52 0-0.84 0.68-1.52 1.52-1.52 0.84 0 1.52 0.68 1.52 1.52z"/>
			<path id="&lt;Path&gt;" class="s4" d="m-1473.88 93.45c0 0.84-0.68 1.52-1.52 1.52-0.84 0-1.52-0.68-1.52-1.52 0-0.84 0.68-1.52 1.52-1.52 0.84 0 1.52 0.68 1.52 1.52z"/>
			<path id="&lt;Path&gt;" class="s2" d="m-1268.06 1130.24c0 0.83-0.68 1.52-1.52 1.52-0.84 0-1.52-0.69-1.52-1.52 0-0.84 0.68-1.53 1.52-1.53 0.84 0 1.52 0.69 1.52 1.53z"/>
			<path id="&lt;Path&gt;" class="s1" d="m-863.39 722.71c0 0.84-0.68 1.52-1.52 1.52-0.84 0-1.52-0.68-1.52-1.52 0-0.84 0.68-1.53 1.52-1.53 0.84 0 1.52 0.69 1.52 1.53z"/>
			<path id="&lt;Path&gt;" class="s4" d="m-774.73 787.05c0 0.84-0.68 1.52-1.52 1.52-0.84 0-1.53-0.68-1.53-1.52 0-0.84 0.69-1.52 1.53-1.52 0.84 0 1.52 0.68 1.52 1.52z"/>
			<path id="&lt;Path&gt;" class="s1" d="m-680.36 579.71c0 0.84-0.68 1.52-1.52 1.52-0.84 0-1.52-0.68-1.52-1.52 0-0.84 0.68-1.52 1.52-1.52 0.84 0 1.52 0.68 1.52 1.52z"/>
			<path id="&lt;Path&gt;" class="s1" d="m-767.58 326.62c0 0.83-0.69 1.52-1.53 1.52-0.84 0-1.52-0.69-1.52-1.52 0-0.84 0.68-1.53 1.52-1.53 0.84 0 1.53 0.69 1.53 1.53z"/>
			<path id="&lt;Path&gt;" class="s2" d="m-634.6 150.73c0 0.84-0.68 1.52-1.52 1.52-0.84 0-1.52-0.68-1.52-1.52 0-0.84 0.68-1.52 1.52-1.52 0.84 0 1.52 0.68 1.52 1.52z"/>
			<path id="&lt;Path&gt;" class="s3" d="m-680.36 167.89c0 0.84-0.68 1.52-1.52 1.52-0.84 0-1.52-0.68-1.52-1.52 0-0.84 0.68-1.52 1.52-1.52 0.84 0 1.52 0.68 1.52 1.52z"/>
			<path id="&lt;Path&gt;" class="s2" d="m-535.42 487.21c0 1.19-0.96 2.15-2.15 2.15-1.18 0-2.14-0.96-2.14-2.15 0-1.18 0.96-2.14 2.14-2.14 1.19 0 2.15 0.96 2.15 2.14z"/>
			<path id="&lt;Path&gt;" class="s5" d="m-1107.48 468.62c0 1.18-0.96 2.14-2.15 2.14-1.18 0-2.14-0.96-2.14-2.14 0-1.19 0.96-2.15 2.14-2.15 1.19 0 2.15 0.96 2.15 2.15z"/>
			<path id="&lt;Path&gt;" class="s3" d="m-1239.77 542.27c0 1.19-0.96 2.15-2.14 2.15-1.19 0-2.15-0.96-2.15-2.15 0-1.18 0.96-2.14 2.15-2.14 1.18 0 2.14 0.96 2.14 2.14z"/>
			<path id="&lt;Path&gt;" class="s1" d="m-443.89 743.21c0 1.18-0.96 2.14-2.15 2.14-1.18 0-2.14-0.96-2.14-2.14 0-1.19 0.96-2.15 2.14-2.15 1.19 0 2.15 0.96 2.15 2.15z"/>
			<path id="&lt;Path&gt;" class="s4" d="m-1409.62 917.18c0 0.79-0.64 1.43-1.43 1.43-0.79 0-1.43-0.64-1.43-1.43 0-0.79 0.64-1.43 1.43-1.43 0.79 0 1.43 0.64 1.43 1.43z"/>
			<path id="&lt;Path&gt;" class="s4" d="m-1113.63 549.68c0 0.79-0.64 1.43-1.43 1.43-0.79 0-1.43-0.64-1.43-1.43 0-0.79 0.64-1.43 1.43-1.43 0.79 0 1.43 0.64 1.43 1.43z"/>
			<path id="&lt;Path&gt;" class="s3" d="m-791.89 216.51c0 0.79-0.64 1.43-1.43 1.43-0.79 0-1.43-0.64-1.43-1.43 0-0.79 0.64-1.43 1.43-1.43 0.79 0 1.43 0.64 1.43 1.43z"/>
			<path id="&lt;Path&gt;" class="s1" d="m-1047.85 169.32c0 0.79-0.64 1.43-1.43 1.43-0.79 0-1.43-0.64-1.43-1.43 0-0.79 0.64-1.43 1.43-1.43 0.79 0 1.43 0.64 1.43 1.43z"/>
			<path id="&lt;Path&gt;" class="s5" d="m-611.72 219.37c0 0.79-0.64 1.43-1.43 1.43-0.79 0-1.43-0.64-1.43-1.43 0-0.79 0.64-1.43 1.43-1.43 0.79 0 1.43 0.64 1.43 1.43z"/>
			<path id="&lt;Path&gt;" class="s3" d="m-417.25 9.17c0 0.79-0.64 1.43-1.43 1.43-0.79 0-1.43-0.64-1.43-1.43 0-0.79 0.64-1.43 1.43-1.43 0.79 0 1.43 0.64 1.43 1.43z"/>
			<path id="&lt;Path&gt;" class="s3" d="m-392.94 72.09c0 0.79-0.64 1.43-1.43 1.43-0.79 0-1.43-0.64-1.43-1.43 0-0.79 0.64-1.43 1.43-1.43 0.79 0 1.43 0.64 1.43 1.43z"/>
			<path id="&lt;Path&gt;" class="s1" d="m-401.52 176.47c0 0.79-0.64 1.43-1.43 1.43-0.79 0-1.43-0.64-1.43-1.43 0-0.79 0.64-1.43 1.43-1.43 0.79 0 1.43 0.64 1.43 1.43z"/>
			<path id="&lt;Path&gt;" class="s4" d="m-387.22 302.31c0 0.79-0.64 1.43-1.43 1.43-0.79 0-1.43-0.64-1.43-1.43 0-0.79 0.64-1.43 1.43-1.43 0.79 0 1.43 0.64 1.43 1.43z"/>
			<path id="&lt;Path&gt;" class="s3" d="m-352.91 235.1c0 0.79-0.64 1.43-1.43 1.43-0.78 0-1.43-0.64-1.43-1.43 0-0.79 0.65-1.43 1.43-1.43 0.79 0 1.43 0.64 1.43 1.43z"/>
			<path id="&lt;Path&gt;" class="s2" d="m-664.63 468.18c0 0.79-0.64 1.43-1.43 1.43-0.79 0-1.43-0.64-1.43-1.43 0-0.79 0.64-1.43 1.43-1.43 0.79 0 1.43 0.64 1.43 1.43z"/>
			<path id="&lt;Path&gt;" class="s2" d="m-573.11 529.66c0 0.79-0.64 1.44-1.43 1.44-0.79 0-1.43-0.65-1.43-1.44 0-0.78 0.64-1.43 1.43-1.43 0.79 0 1.43 0.65 1.43 1.43z"/>
			<path id="&lt;Path&gt;" class="s1" d="m-418.68 855.69c0 0.79-0.64 1.43-1.43 1.43-0.79 0-1.43-0.64-1.43-1.43 0-0.79 0.64-1.43 1.43-1.43 0.79 0 1.43 0.64 1.43 1.43z"/>
			<path id="&lt;Path&gt;" class="s1" d="m-830.5 900.02c0 0.79-0.64 1.43-1.43 1.43-0.79 0-1.43-0.64-1.43-1.43 0-0.79 0.64-1.43 1.43-1.43 0.79 0 1.43 0.64 1.43 1.43z"/>
			<path id="&lt;Path&gt;" class="s1" d="m-607.43 1002.97c0 0.79-0.64 1.43-1.43 1.43-0.79 0-1.43-0.64-1.43-1.43 0-0.79 0.64-1.43 1.43-1.43 0.79 0 1.43 0.64 1.43 1.43z"/>
			<path id="&lt;Path&gt;" class="s5" d="m-860.53 1038.72c0 0.79-0.64 1.43-1.43 1.43-0.79 0-1.43-0.64-1.43-1.43 0-0.79 0.64-1.43 1.43-1.43 0.79 0 1.43 0.64 1.43 1.43z"/>
			<path id="&lt;Path&gt;" class="s1" d="m-550.24 1137.38c0 0.79-0.64 1.43-1.43 1.43-0.79 0-1.43-0.64-1.43-1.43 0-0.79 0.64-1.43 1.43-1.43 0.79 0 1.43 0.64 1.43 1.43z"/>
			<path id="&lt;Path&gt;" class="s2" d="m-791.89 1135.95c0 0.79-0.64 1.43-1.43 1.43-0.79 0-1.43-0.64-1.43-1.43 0-0.79 0.64-1.43 1.43-1.43 0.79 0 1.43 0.64 1.43 1.43z"/>
			<path id="&lt;Path&gt;" class="s4" d="m-467.3 954.35c0 0.79-0.64 1.43-1.43 1.43-0.79 0-1.43-0.64-1.43-1.43 0-0.79 0.64-1.43 1.43-1.43 0.79 0 1.43 0.64 1.43 1.43z"/>
			<path id="&lt;Path&gt;" class="s4" d="m-1150.81 1098.78c0 0.79-0.64 1.43-1.43 1.43-0.79 0-1.43-0.64-1.43-1.43 0-0.79 0.64-1.43 1.43-1.43 0.79 0 1.43 0.64 1.43 1.43z"/>
			<path id="&lt;Path&gt;" class="s1" d="m-426.02 399.26c0 1.18-0.96 2.14-2.14 2.14-1.19 0-2.15-0.96-2.15-2.14 0-1.19 0.96-2.15 2.15-2.15 1.18 0 2.14 0.96 2.14 2.15z"/>
			<path id="&lt;Path&gt;" class="s1" d="m-1431.41 765.37c0 1.19-0.96 2.15-2.14 2.15-1.19 0-2.15-0.96-2.15-2.15 0-1.18 0.96-2.14 2.15-2.14 1.18 0 2.14 0.96 2.14 2.14z"/>
			<path id="&lt;Path&gt;" class="s5" d="m-375.25 33.86c0 1.18-0.96 2.14-2.14 2.14-1.19 0-2.15-0.96-2.15-2.14 0-1.19 0.96-2.15 2.15-2.15 1.18 0 2.14 0.96 2.14 2.15z"/>
			<path id="&lt;Path&gt;" class="s3" d="m-438.17 1115.04c0 1.19-0.96 2.15-2.15 2.15-1.18 0-2.14-0.96-2.14-2.15 0-1.18 0.96-2.14 2.14-2.14 1.19 0 2.15 0.96 2.15 2.14z"/>
			<path id="&lt;Path&gt;" class="s3" d="m-1021.08 718.58c0 1.18-0.96 2.14-2.15 2.14-1.18 0-2.14-0.96-2.14-2.14 0-1.19 0.96-2.15 2.14-2.15 1.19 0 2.15 0.96 2.15 2.15z"/>
			<path id="&lt;Path&gt;" class="s2" d="m-1004.51 1115.04c0 1.19-0.96 2.15-2.14 2.15-1.19 0-2.15-0.96-2.15-2.15 0-1.18 0.96-2.14 2.15-2.14 1.18 0 2.14 0.96 2.14 2.14z"/>
			<path id="&lt;Path&gt;" class="s6" d="m-1328.44 1008.5c0 1.18-0.96 2.14-2.14 2.14-1.19 0-2.15-0.96-2.15-2.14 0-1.19 0.96-2.15 2.15-2.15 1.18 0 2.14 0.96 2.14 2.15z"/>
			<path id="&lt;Path&gt;" class="s1" d="m-1382.07 655.97c0 1.18-0.96 2.14-2.14 2.14-1.19 0-2.15-0.96-2.15-2.14 0-1.19 0.96-2.15 2.15-2.15 1.18 0 2.14 0.96 2.14 2.15z"/>
			<path id="&lt;Path&gt;" class="s6" d="m-1293.4 341.34c0 1.18-0.96 2.14-2.14 2.14-1.19 0-2.15-0.96-2.15-2.14 0-1.19 0.96-2.15 2.15-2.15 1.18 0 2.14 0.96 2.14 2.15z"/>
			<path id="&lt;Path&gt;" class="s3" d="m-1126.79 27.42c0 1.18-0.96 2.14-2.14 2.14-1.19 0-2.15-0.96-2.15-2.14 0-1.18 0.96-2.15 2.15-2.15 1.18 0 2.14 0.97 2.14 2.15z"/>
			<path id="&lt;Path&gt;" class="s3" d="m-933.72 1002.78c0 1.18-0.96 2.14-2.14 2.14-1.19 0-2.15-0.96-2.15-2.14 0-1.19 0.96-2.15 2.15-2.15 1.18 0 2.14 0.96 2.14 2.15z"/>
			<path id="&lt;Path&gt;" class="s1" d="m-631.96 453.6c0 1.19-0.96 2.15-2.14 2.15-1.19 0-2.15-0.96-2.15-2.15 0-1.18 0.96-2.14 2.15-2.14 1.18 0 2.14 0.96 2.14 2.14z"/>
			<path id="&lt;Path&gt;" class="s4" d="m-638.39 42.44c0 1.18-0.96 2.14-2.15 2.14-1.18 0-2.14-0.96-2.14-2.14 0-1.19 0.96-2.15 2.14-2.15 1.19 0 2.15 0.96 2.15 2.15z"/>
			<path id="&lt;Path&gt;" class="s3" d="m-1333.12 721.28c0 1.18-0.96 2.14-2.15 2.14-1.18 0-2.14-0.96-2.14-2.14 0-1.19 0.96-2.15 2.14-2.15 1.19 0 2.15 0.96 2.15 2.15z"/>
			<path id="&lt;Path&gt;" class="s2" d="m-1465.02 923.4c0 1.19-0.96 2.15-2.14 2.15-1.19 0-2.15-0.96-2.15-2.15 0-1.18 0.96-2.14 2.15-2.14 1.18 0 2.14 0.96 2.14 2.14z"/>
			<path id="&lt;Path&gt;" class="s3" d="m-996.64 416.42c0 1.18-0.96 2.14-2.15 2.14-1.18 0-2.14-0.96-2.14-2.14 0-1.19 0.96-2.15 2.14-2.15 1.19 0 2.15 0.96 2.15 2.15z"/>
			<path id="&lt;Path&gt;" class="s4" d="m-1346.71 601.88c0 2.76-2.24 5-5 5-2.76 0-5.01-2.24-5.01-5 0-2.77 2.25-5.01 5.01-5.01 2.76 0 5 2.24 5 5.01z"/>
			<path id="&lt;Path&gt;" class="s4" d="m-1303.81 10.6c0 2.77-2.24 5.01-5 5.01-2.77 0-5.01-2.24-5.01-5.01 0-2.76 2.24-5 5.01-5 2.76 0 5 2.24 5 5z"/>
			<path id="&lt;Path&gt;" class="s6" d="m-1147.52 869.99c-18.01 2.92-20.38 5.29-23.3 23.31-2.93-18.02-5.3-20.39-23.31-23.31 18.01-2.92 20.38-5.29 23.31-23.31 2.92 18.02 5.29 20.39 23.3 23.31z"/>
			<path id="&lt;Path&gt;" class="s4" d="m-728.98 390.96c0 3.16-2.56 5.72-5.72 5.72-3.16 0-5.72-2.56-5.72-5.72 0-3.16 2.56-5.72 5.72-5.72 3.16 0 5.72 2.56 5.72 5.72z"/>
			<path id="&lt;Path&gt;" class="s1" d="m-950.23 409.93c0 3.16-2.56 5.72-5.72 5.72-3.16 0-5.72-2.56-5.72-5.72 0-3.16 2.56-5.72 5.72-5.72 3.16 0 5.72 2.56 5.72 5.72z"/>
			<path id="&lt;Path&gt;" class="s6" d="m-864.82 250.83c0 4.74-3.84 8.58-8.58 8.58-4.74 0-8.58-3.84-8.58-8.58 0-4.74 3.84-8.58 8.58-8.58 4.74 0 8.58 3.84 8.58 8.58z"/>
			<path id="&lt;Path&gt;" class="s3" d="m-632.58 117.85c-12.62 2.04-14.28 3.7-16.32 16.31-2.05-12.61-3.7-14.27-16.32-16.31 12.62-2.05 14.27-3.71 16.32-16.32 2.04 12.61 3.7 14.27 16.32 16.32z"/>
			<path id="&lt;Path&gt;" class="s1" d="m-730.41 388.1c0 2.37-1.92 4.29-4.29 4.29-2.37 0-4.29-1.92-4.29-4.29 0-2.37 1.92-4.29 4.29-4.29 2.37 0 4.29 1.92 4.29 4.29z"/>
			<path id="&lt;Path&gt;" class="s5" d="m-498.76 664.08c0 3.95-3.2 7.15-7.15 7.15-3.95 0-7.15-3.2-7.15-7.15 0-3.95 3.2-7.15 7.15-7.15 3.95 0 7.15 3.2 7.15 7.15z"/>
			<path id="&lt;Path&gt;" class="s3" d="m-1160.81 1051.59c0 2.37-1.93 4.29-4.29 4.29-2.37 0-4.29-1.92-4.29-4.29 0-2.37 1.92-4.29 4.29-4.29 2.36 0 4.29 1.92 4.29 4.29z"/>
			<path id="&lt;Path&gt;" class="s2" d="m-1175.41 251.95c0 5.53-4.48 10.01-10.01 10.01-5.53 0-10.01-4.48-10.01-10.01 0-5.53 4.48-10.01 10.01-10.01 5.53 0 10.01 4.48 10.01 10.01z"/>
			<path id="&lt;Path&gt;" class="s3" d="m-811.32 807.07c-12.62 2.05-14.28 3.71-16.32 16.32-2.05-12.61-3.71-14.27-16.32-16.32 12.61-2.04 14.27-3.7 16.32-16.32 2.04 12.62 3.7 14.28 16.32 16.32z"/>
			<path id="&lt;Path&gt;" class="s2" d="m-420.95 215.08c-12.62 2.05-14.28 3.7-16.32 16.32-2.05-12.62-3.71-14.27-16.32-16.32 12.61-2.04 14.27-3.7 16.32-16.32 2.04 12.62 3.7 14.28 16.32 16.32z"/>
			<path id="&lt;Path&gt;" class="s3" d="m-1072.44 497.94c0 3.95-3.2 7.15-7.15 7.15-3.95 0-7.15-3.2-7.15-7.15 0-3.95 3.2-7.15 7.15-7.15 3.95 0 7.15 3.2 7.15 7.15z"/>
			<path id="&lt;Path&gt;" class="s3" d="m-1429.98 876.92c0 1.58-1.28 2.87-2.86 2.87-1.58 0-2.86-1.29-2.86-2.87 0-1.57 1.28-2.86 2.86-2.86 1.58 0 2.86 1.29 2.86 2.86z"/>
			<path id="&lt;Path&gt;" class="s1" d="m-1421.4 1014.22c0 3.16-2.56 5.72-5.72 5.72-3.16 0-5.72-2.56-5.72-5.72 0-3.16 2.56-5.72 5.72-5.72 3.16 0 5.72 2.56 5.72 5.72z"/>
			<path id="&lt;Path&gt;" class="s1" d="m-1444.28 1124.34c0 5.53-4.48 10.01-10.01 10.01-5.53 0-10.01-4.48-10.01-10.01 0-5.53 4.48-10.01 10.01-10.01 5.53 0 10.01 4.48 10.01 10.01z"/>
			<path id="&lt;Path&gt;" class="s3" d="m-1352.75 1091.45c0 1.58-1.28 2.86-2.86 2.86-1.58 0-2.86-1.28-2.86-2.86 0-1.58 1.28-2.86 2.86-2.86 1.58 0 2.86 1.28 2.86 2.86z"/>
			<path id="&lt;Path&gt;" class="s3" d="m-1083.69 337.48c0 3.16-2.56 5.72-5.72 5.72-3.16 0-5.72-2.56-5.72-5.72 0-3.16 2.56-5.72 5.72-5.72 3.16 0 5.72 2.56 5.72 5.72z"/>
			<path id="&lt;Path&gt;" class="s6" d="m-1101.04 110.37c0 1.58-1.29 2.86-2.86 2.86-1.58 0-2.87-1.28-2.87-2.86 0-1.58 1.29-2.86 2.87-2.86 1.57 0 2.86 1.28 2.86 2.86z"/>
			<path id="&lt;Path&gt;" class="s1" d="m-911.68 66.03c-12.61 2.05-14.27 3.71-16.32 16.32-2.04-12.61-3.7-14.27-16.31-16.32 12.61-2.04 14.27-3.7 16.31-16.31 2.05 12.61 3.71 14.27 16.32 16.31z"/>
			<path id="&lt;Path&gt;" class="s5" d="m-477.82 1074.28c-10.81 1.76-12.23 3.18-13.98 13.99-1.76-10.81-3.18-12.23-13.99-13.99 10.81-1.75 12.23-3.17 13.99-13.98 1.75 10.81 3.17 12.23 13.98 13.98z"/>
			<path id="&lt;Path&gt;" class="s1" d="m-600.49 28.85c0 3.95-3.21 7.15-7.15 7.15-3.95 0-7.16-3.2-7.16-7.15 0-3.95 3.21-7.15 7.16-7.15 3.94 0 7.15 3.2 7.15 7.15z"/>
			<path id="&lt;Path&gt;" class="s4" d="m-1437.04 432.15c0 3.21-2.6 5.81-5.81 5.81-3.21 0-5.81-2.6-5.81-5.81 0-3.21 2.6-5.81 5.81-5.81 3.21 0 5.81 2.6 5.81 5.81z"/>
			<path id="&lt;Path&gt;" class="s1" d="m-589.05 842.6c0 3.21-2.6 5.81-5.81 5.81-3.21 0-5.81-2.6-5.81-5.81 0-3.21 2.6-5.81 5.81-5.81 3.21 0 5.81 2.6 5.81 5.81z"/>
			<path id="&lt;Path&gt;" class="s4" d="m-437.46 290.57c0 3.16-2.56 5.72-5.72 5.72-3.16 0-5.72-2.56-5.72-5.72 0-3.16 2.56-5.72 5.72-5.72 3.16 0 5.72 2.56 5.72 5.72z"/>
			<path id="&lt;Path&gt;" class="s3" d="m-417.49 499.37c14.41-2.34 16.31-4.24 18.65-18.65 2.33 14.41 4.23 16.31 18.64 18.65-14.41 2.33-16.31 4.23-18.64 18.65-2.34-14.42-4.24-16.32-18.65-18.65z"/>
		</g>
		<g id="&lt;Group&gt;">
			<path id="&lt;Path&gt;" class="s0" d="m-3426 1144h-1144v-1144h1144z"/>
			<path id="&lt;Path&gt;" class="s5" d="m-4523.65 357.36c0 1.97-1.6 3.57-3.58 3.57-1.97 0-3.57-1.6-3.57-3.57 0-1.98 1.6-3.58 3.57-3.58 1.98 0 3.58 1.6 3.58 3.58z"/>
			<path id="&lt;Path&gt;" class="s3" d="m-4506.49 252.26c0 5.53-4.48 10.01-10.01 10.01-5.53 0-10.01-4.48-10.01-10.01 0-5.53 4.48-10.01 10.01-10.01 5.53 0 10.01 4.48 10.01 10.01z"/>
			<path id="&lt;Path&gt;" class="s1" d="m-4492.19 297.3c0 1.98-1.6 3.58-3.58 3.58-1.97 0-3.57-1.6-3.57-3.58 0-1.97 1.6-3.57 3.57-3.57 1.98 0 3.58 1.6 3.58 3.57z"/>
			<path id="&lt;Path&gt;" class="s3" d="m-3487.67 124.28c0 1.97-1.6 3.58-3.57 3.58-1.98 0-3.58-1.61-3.58-3.58 0-1.97 1.6-3.57 3.58-3.57 1.97 0 3.57 1.6 3.57 3.57z"/>
			<path id="&lt;Path&gt;" class="s1" d="m-4368.5 179.33c0 1.98-1.6 3.58-3.58 3.58-1.97 0-3.57-1.6-3.57-3.58 0-1.97 1.6-3.57 3.57-3.57 1.98 0 3.58 1.6 3.58 3.57z"/>
			<path id="&lt;Path&gt;" class="s4" d="m-4487.9 78.52c0 1.98-1.6 3.58-3.58 3.58-1.97 0-3.57-1.6-3.57-3.58 0-1.97 1.6-3.57 3.57-3.57 1.98 0 3.58 1.6 3.58 3.57z"/>
			<path id="&lt;Path&gt;" class="s2" d="m-4074.65 23.47c0 1.97-1.6 3.58-3.58 3.58-1.97 0-3.57-1.61-3.57-3.58 0-1.97 1.6-3.57 3.57-3.57 1.98 0 3.58 1.6 3.58 3.57z"/>
			<path id="&lt;Path&gt;" class="s1" d="m-4455.73 376.66c0 1.98-1.6 3.58-3.57 3.58-1.98 0-3.58-1.6-3.58-3.58 0-1.97 1.6-3.57 3.58-3.57 1.97 0 3.57 1.6 3.57 3.57z"/>
			<path id="&lt;Path&gt;" class="s1" d="m-3538.43 162.17c0 1.98-1.6 3.58-3.58 3.58-1.97 0-3.57-1.6-3.57-3.58 0-1.97 1.6-3.57 3.57-3.57 1.98 0 3.58 1.6 3.58 3.57z"/>
			<path id="&lt;Path&gt;" class="s4" d="m-4267.99 116.09c0 1.97-1.6 3.57-3.58 3.57-1.97 0-3.57-1.6-3.57-3.57 0-1.98 1.6-3.58 3.57-3.58 1.98 0 3.58 1.6 3.58 3.58z"/>
			<path id="&lt;Path&gt;" class="s1" d="m-3974.81 30.28c0 1.97-1.61 3.57-3.58 3.57-1.97 0-3.57-1.6-3.57-3.57 0-1.97 1.6-3.57 3.57-3.57 1.97 0 3.58 1.6 3.58 3.57z"/>
			<path id="&lt;Path&gt;" class="s1" d="m-3562.93 24.56c0 1.97-1.6 3.57-3.58 3.57-1.97 0-3.57-1.6-3.57-3.57 0-1.97 1.6-3.58 3.57-3.58 1.98 0 3.58 1.61 3.58 3.58z"/>
			<path id="&lt;Path&gt;" class="s2" d="m-3451.38 344.91c0 1.98-1.6 3.58-3.58 3.58-1.97 0-3.57-1.6-3.57-3.58 0-1.97 1.6-3.57 3.57-3.57 1.98 0 3.58 1.6 3.58 3.57z"/>
			<path id="&lt;Path&gt;" class="s4" d="m-3669.48 936.28c0 1.97-1.6 3.57-3.57 3.57-1.98 0-3.58-1.6-3.58-3.57 0-1.98 1.6-3.58 3.58-3.58 1.97 0 3.57 1.6 3.57 3.58z"/>
			<path id="&lt;Path&gt;" class="s3" d="m-3972.67 1117.19c0 1.97-1.6 3.57-3.57 3.57-1.98 0-3.58-1.6-3.58-3.57 0-1.98 1.6-3.58 3.58-3.58 1.97 0 3.57 1.6 3.57 3.58z"/>
			<path id="&lt;Path&gt;" class="s3" d="m-4552.59 1025.66c0 1.97-1.6 3.57-3.58 3.57-1.97 0-3.57-1.6-3.57-3.57 0-1.97 1.6-3.58 3.57-3.58 1.98 0 3.58 1.61 3.58 3.58z"/>
			<path id="&lt;Path&gt;" class="s3" d="m-4032.02 576.59c0 1.98-1.6 3.58-3.58 3.58-1.97 0-3.57-1.6-3.57-3.58 0-1.97 1.6-3.57 3.57-3.57 1.98 0 3.58 1.6 3.58 3.57z"/>
			<path id="&lt;Path&gt;" class="s4" d="m-3457.82 249.81c0 1.97-1.6 3.57-3.57 3.57-1.98 0-3.58-1.6-3.58-3.57 0-1.98 1.6-3.58 3.58-3.58 1.97 0 3.57 1.6 3.57 3.58z"/>
			<path id="&lt;Path&gt;" class="s3" d="m-4035.6 124.67c0 1.97-1.6 3.57-3.57 3.57-1.97 0-3.57-1.6-3.57-3.57 0-1.97 1.6-3.58 3.57-3.58 1.97 0 3.57 1.61 3.57 3.58z"/>
			<path id="&lt;Path&gt;" class="s5" d="m-4097.53 539.67c0 1.98-1.6 3.58-3.58 3.58-1.97 0-3.57-1.6-3.57-3.58 0-1.97 1.6-3.57 3.57-3.57 1.98 0 3.58 1.6 3.58 3.57z"/>
			<path id="&lt;Path&gt;" class="s3" d="m-4367.79 911.46c0 1.97-1.6 3.57-3.57 3.57-1.98 0-3.58-1.6-3.58-3.57 0-1.98 1.6-3.58 3.58-3.58 1.97 0 3.57 1.6 3.57 3.58z"/>
			<path id="&lt;Path&gt;" class="s2" d="m-4552.59 284.85c0 1.97-1.6 3.57-3.58 3.57-1.97 0-3.57-1.6-3.57-3.57 0-1.98 1.6-3.58 3.57-3.58 1.98 0 3.58 1.6 3.58 3.58z"/>
			<path id="&lt;Path&gt;" class="s3" d="m-3700.94 607.34c0 1.98-1.6 3.58-3.58 3.58-1.97 0-3.57-1.6-3.57-3.58 0-1.97 1.6-3.57 3.57-3.57 1.98 0 3.58 1.6 3.58 3.57z"/>
			<path id="&lt;Path&gt;" class="s1" d="m-3801.05 901.95c0 1.98-1.6 3.58-3.58 3.58-1.97 0-3.57-1.6-3.57-3.58 0-1.97 1.6-3.57 3.57-3.57 1.98 0 3.58 1.6 3.58 3.57z"/>
			<path id="&lt;Path&gt;" class="s3" d="m-3830.37 1057.12c0 1.98-1.6 3.58-3.57 3.58-1.98 0-3.58-1.6-3.58-3.58 0-1.97 1.6-3.57 3.58-3.57 1.97 0 3.57 1.6 3.57 3.57z"/>
			<path id="&lt;Path&gt;" class="s4" d="m-4439.29 145.73c0 4.34-3.52 7.86-7.86 7.86-4.34 0-7.86-3.52-7.86-7.86 0-4.34 3.52-7.87 7.86-7.87 4.34 0 7.86 3.53 7.86 7.87z"/>
			<path id="&lt;Path&gt;" class="s3" d="m-4550.82 184.34c0-1.19 0.96-2.15 2.15-2.15 1.18 0 2.14 0.96 2.14 2.15 0 1.18-0.96 2.14-2.14 2.14-1.19 0-2.15-0.96-2.15-2.14z"/>
			<path id="&lt;Path&gt;" class="s1" d="m-4525.1 39.91c-17.12 2.78-19.37 5.03-22.14 22.15-2.78-17.12-5.03-19.37-22.15-22.15 17.12-2.77 19.37-5.02 22.15-22.14 2.77 17.12 5.02 19.37 22.14 22.14z"/>
			<path id="&lt;Path&gt;" class="s4" d="m-4347.77 52.07c0 1.58-1.28 2.86-2.86 2.86-1.58 0-2.86-1.28-2.86-2.86 0-1.58 1.28-2.86 2.86-2.86 1.58 0 2.86 1.28 2.86 2.86z"/>
			<path id="&lt;Path&gt;" class="s6" d="m-4132.42 261.96c-19.45 2.53-21.49 4.58-24.02 24.02-2.53-19.44-4.58-21.49-24.02-24.02 19.44-2.53 21.49-4.57 24.02-24.02 2.53 19.45 4.57 21.49 24.02 24.02z"/>
			<path id="&lt;Path&gt;" class="s3" d="m-4423.56 64.22c0 1.19-0.96 2.15-2.14 2.15-1.19 0-2.15-0.96-2.15-2.15 0-1.18 0.96-2.14 2.15-2.14 1.18 0 2.14 0.96 2.14 2.14z"/>
			<path id="&lt;Path&gt;" class="s4" d="m-3434.67 467.82c0 0.84-0.68 1.52-1.52 1.52-0.84 0-1.52-0.68-1.52-1.52 0-0.84 0.68-1.52 1.52-1.52 0.84 0 1.52 0.68 1.52 1.52z"/>
			<path id="&lt;Path&gt;" class="s1" d="m-4003.07 388.19c0 0.84-0.68 1.52-1.52 1.52-0.84 0-1.52-0.68-1.52-1.52 0-0.84 0.68-1.52 1.52-1.52 0.84 0 1.52 0.68 1.52 1.52z"/>
			<path id="&lt;Path&gt;" class="s3" d="m-3785.81 106.41c0 0.84-0.68 1.52-1.52 1.52-0.84 0-1.52-0.68-1.52-1.52 0-0.84 0.68-1.52 1.52-1.52 0.84 0 1.52 0.68 1.52 1.52z"/>
			<path id="&lt;Path&gt;" class="s4" d="m-3864.36 59.31c0 0.84-0.68 1.52-1.52 1.52-0.84 0-1.52-0.68-1.52-1.52 0-0.84 0.68-1.52 1.52-1.52 0.84 0 1.52 0.68 1.52 1.52z"/>
			<path id="&lt;Path&gt;" class="s2" d="m-4254.73 4.79c0 0.84-0.68 1.52-1.52 1.52-0.84 0-1.53-0.68-1.53-1.52 0-0.84 0.69-1.52 1.53-1.52 0.84 0 1.52 0.68 1.52 1.52z"/>
			<path id="&lt;Path&gt;" class="s4" d="m-4464.84 27.76c0 0.84-0.68 1.52-1.52 1.52-0.84 0-1.52-0.68-1.52-1.52 0-0.84 0.68-1.52 1.52-1.52 0.84 0 1.52 0.68 1.52 1.52z"/>
			<path id="&lt;Path&gt;" class="s3" d="m-4557.88 93.45c0 0.84-0.68 1.52-1.52 1.52-0.84 0-1.52-0.68-1.52-1.52 0-0.84 0.68-1.52 1.52-1.52 0.84 0 1.52 0.68 1.52 1.52z"/>
			<path id="&lt;Path&gt;" class="s3" d="m-4502.2 584c0 0.84-0.68 1.52-1.52 1.52-0.84 0-1.52-0.68-1.52-1.52 0-0.84 0.68-1.52 1.52-1.52 0.84 0 1.52 0.68 1.52 1.52z"/>
			<path id="&lt;Path&gt;" class="s5" d="m-4556.54 802.78c0 0.84-0.68 1.52-1.52 1.52-0.84 0-1.52-0.68-1.52-1.52 0-0.84 0.68-1.52 1.52-1.52 0.84 0 1.52 0.68 1.52 1.52z"/>
			<path id="&lt;Path&gt;" class="s3" d="m-4352.06 1130.24c0 0.83-0.68 1.52-1.52 1.52-0.84 0-1.52-0.69-1.52-1.52 0-0.84 0.68-1.53 1.52-1.53 0.84 0 1.52 0.69 1.52 1.53z"/>
			<path id="&lt;Path&gt;" class="s5" d="m-4193.25 894.21c0 0.84-0.68 1.52-1.52 1.52-0.84 0-1.52-0.68-1.52-1.52 0-0.84 0.68-1.52 1.52-1.52 0.84 0 1.52 0.68 1.52 1.52z"/>
			<path id="&lt;Path&gt;" class="s3" d="m-3947.39 722.71c0 0.84-0.68 1.52-1.52 1.52-0.84 0-1.52-0.68-1.52-1.52 0-0.84 0.68-1.53 1.52-1.53 0.84 0 1.52 0.69 1.52 1.53z"/>
			<path id="&lt;Path&gt;" class="s4" d="m-3858.73 787.05c0 0.84-0.68 1.52-1.53 1.52-0.83 0-1.52-0.68-1.52-1.52 0-0.84 0.69-1.52 1.52-1.52 0.85 0 1.53 0.68 1.53 1.52z"/>
			<path id="&lt;Path&gt;" class="s3" d="m-3764.36 579.71c0 0.84-0.68 1.52-1.52 1.52-0.84 0-1.52-0.68-1.52-1.52 0-0.84 0.68-1.52 1.52-1.52 0.84 0 1.52 0.68 1.52 1.52z"/>
			<path id="&lt;Path&gt;" class="s4" d="m-3851.58 326.62c0 0.83-0.69 1.52-1.53 1.52-0.84 0-1.52-0.69-1.52-1.52 0-0.84 0.68-1.53 1.52-1.53 0.84 0 1.53 0.69 1.53 1.53z"/>
			<path id="&lt;Path&gt;" class="s1" d="m-3551.3 342.34c0 0.84-0.68 1.53-1.52 1.53-0.84 0-1.52-0.69-1.52-1.53 0-0.84 0.68-1.52 1.52-1.52 0.84 0 1.52 0.68 1.52 1.52z"/>
			<path id="&lt;Path&gt;" class="s4" d="m-3718.6 150.73c0 0.84-0.68 1.52-1.52 1.52-0.84 0-1.52-0.68-1.52-1.52 0-0.84 0.68-1.52 1.52-1.52 0.84 0 1.52 0.68 1.52 1.52z"/>
			<path id="&lt;Path&gt;" class="s1" d="m-3764.36 167.89c0 0.84-0.68 1.52-1.52 1.52-0.84 0-1.52-0.68-1.52-1.52 0-0.84 0.68-1.52 1.52-1.52 0.84 0 1.52 0.68 1.52 1.52z"/>
			<path id="&lt;Path&gt;" class="s1" d="m-3625.86 107.51c0 1.18-0.96 2.14-2.14 2.14-1.19 0-2.15-0.96-2.15-2.14 0-1.19 0.96-2.15 2.15-2.15 1.18 0 2.14 0.96 2.14 2.15z"/>
			<path id="&lt;Path&gt;" class="s2" d="m-3619.42 487.21c0 1.19-0.96 2.15-2.15 2.15-1.18 0-2.14-0.96-2.14-2.15 0-1.18 0.96-2.14 2.14-2.14 1.19 0 2.15 0.96 2.15 2.14z"/>
			<path id="&lt;Path&gt;" class="s5" d="m-4127.84 822.58c0 1.18-0.96 2.14-2.14 2.14-1.19 0-2.15-0.96-2.15-2.14 0-1.19 0.96-2.15 2.15-2.15 1.18 0 2.14 0.96 2.14 2.15z"/>
			<path id="&lt;Path&gt;" class="s4" d="m-3862.55 437.16c0 1.18-0.96 2.14-2.14 2.14-1.19 0-2.15-0.96-2.15-2.14 0-1.19 0.96-2.15 2.15-2.15 1.18 0 2.14 0.96 2.14 2.15z"/>
			<path id="&lt;Path&gt;" class="s4" d="m-4191.48 468.62c0 1.18-0.96 2.14-2.15 2.14-1.18 0-2.14-0.96-2.14-2.14 0-1.19 0.96-2.15 2.14-2.15 1.19 0 2.15 0.96 2.15 2.15z"/>
			<path id="&lt;Path&gt;" class="s5" d="m-4323.77 542.27c0 1.19-0.96 2.15-2.14 2.15-1.19 0-2.15-0.96-2.15-2.15 0-1.18 0.96-2.14 2.15-2.14 1.18 0 2.14 0.96 2.14 2.14z"/>
			<path id="&lt;Path&gt;" class="s4" d="m-4169.31 1037.1c0 1.19-0.96 2.15-2.15 2.15-1.18 0-2.14-0.96-2.14-2.15 0-1.18 0.96-2.14 2.14-2.14 1.19 0 2.15 0.96 2.15 2.14z"/>
			<path id="&lt;Path&gt;" class="s2" d="m-3784.6 1117.19c0 1.18-0.96 2.14-2.15 2.14-1.18 0-2.14-0.96-2.14-2.14 0-1.19 0.96-2.15 2.14-2.15 1.19 0 2.15 0.96 2.15 2.15z"/>
			<path id="&lt;Path&gt;" class="s5" d="m-3909.03 874.06c0 1.19-0.96 2.15-2.14 2.15-1.19 0-2.15-0.96-2.15-2.15 0-1.18 0.96-2.14 2.15-2.14 1.18 0 2.14 0.96 2.14 2.14z"/>
			<path id="&lt;Path&gt;" class="s4" d="m-3527.89 743.21c0 1.18-0.96 2.14-2.15 2.14-1.18 0-2.14-0.96-2.14-2.14 0-1.19 0.96-2.15 2.14-2.15 1.19 0 2.15 0.96 2.15 2.15z"/>
			<path id="&lt;Path&gt;" class="s1" d="m-4468.6 824.23c0 0.79-0.64 1.43-1.43 1.43-0.79 0-1.43-0.64-1.43-1.43 0-0.79 0.64-1.43 1.43-1.43 0.79 0 1.43 0.64 1.43 1.43z"/>
			<path id="&lt;Path&gt;" class="s3" d="m-4493.62 917.18c0 0.79-0.64 1.43-1.43 1.43-0.79 0-1.43-0.64-1.43-1.43 0-0.79 0.64-1.43 1.43-1.43 0.79 0 1.43 0.64 1.43 1.43z"/>
			<path id="&lt;Path&gt;" class="s4" d="m-4317.74 1004.4c0 0.79-0.64 1.43-1.43 1.43-0.79 0-1.43-0.64-1.43-1.43 0-0.79 0.64-1.43 1.43-1.43 0.79 0 1.43 0.64 1.43 1.43z"/>
			<path id="&lt;Path&gt;" class="s5" d="m-4233.38 771.32c0 0.79-0.64 1.43-1.43 1.43-0.79 0-1.43-0.64-1.43-1.43 0-0.79 0.64-1.43 1.43-1.43 0.79 0 1.43 0.64 1.43 1.43z"/>
			<path id="&lt;Path&gt;" class="s4" d="m-4197.63 549.68c0 0.79-0.64 1.43-1.43 1.43-0.79 0-1.43-0.64-1.43-1.43 0-0.79 0.64-1.43 1.43-1.43 0.79 0 1.43 0.64 1.43 1.43z"/>
			<path id="&lt;Path&gt;" class="s4" d="m-3927.37 445.3c0 0.79-0.64 1.43-1.43 1.43-0.79 0-1.43-0.64-1.43-1.43 0-0.79 0.64-1.43 1.43-1.43 0.79 0 1.43 0.64 1.43 1.43z"/>
			<path id="&lt;Path&gt;" class="s4" d="m-4360.64 396.68c0 0.79-0.64 1.43-1.43 1.43-0.79 0-1.43-0.64-1.43-1.43 0-0.79 0.64-1.43 1.43-1.43 0.79 0 1.43 0.64 1.43 1.43z"/>
			<path id="&lt;Path&gt;" class="s3" d="m-3875.89 216.51c0 0.79-0.64 1.43-1.43 1.43-0.79 0-1.43-0.64-1.43-1.43 0-0.79 0.64-1.43 1.43-1.43 0.79 0 1.43 0.64 1.43 1.43z"/>
			<path id="&lt;Path&gt;" class="s1" d="m-4131.85 169.32c0 0.79-0.64 1.43-1.43 1.43-0.79 0-1.43-0.64-1.43-1.43 0-0.79 0.64-1.43 1.43-1.43 0.79 0 1.43 0.64 1.43 1.43z"/>
			<path id="&lt;Path&gt;" class="s1" d="m-4440.72 255.12c0 0.79-0.64 1.43-1.42 1.43-0.79 0-1.43-0.64-1.43-1.43 0-0.79 0.64-1.43 1.43-1.43 0.78 0 1.42 0.64 1.42 1.43z"/>
			<path id="&lt;Path&gt;" class="s1" d="m-3834.43 609.74c0 0.79-0.64 1.43-1.43 1.43-0.78 0-1.43-0.64-1.43-1.43 0-0.79 0.65-1.43 1.43-1.43 0.79 0 1.43 0.64 1.43 1.43z"/>
			<path id="&lt;Path&gt;" class="s2" d="m-3695.72 219.37c0 0.79-0.64 1.43-1.43 1.43-0.79 0-1.43-0.64-1.43-1.43 0-0.79 0.64-1.43 1.43-1.43 0.79 0 1.43 0.64 1.43 1.43z"/>
			<path id="&lt;Path&gt;" class="s5" d="m-3622.8 54.93c0 0.79-0.64 1.43-1.43 1.43-0.79 0-1.43-0.64-1.43-1.43 0-0.79 0.64-1.43 1.43-1.43 0.79 0 1.43 0.64 1.43 1.43z"/>
			<path id="&lt;Path&gt;" class="s4" d="m-3501.25 9.17c0 0.79-0.64 1.43-1.43 1.43-0.79 0-1.43-0.64-1.43-1.43 0-0.79 0.64-1.43 1.43-1.43 0.79 0 1.43 0.64 1.43 1.43z"/>
			<path id="&lt;Path&gt;" class="s1" d="m-3476.94 72.09c0 0.79-0.64 1.43-1.43 1.43-0.79 0-1.43-0.64-1.43-1.43 0-0.79 0.64-1.43 1.43-1.43 0.79 0 1.43 0.64 1.43 1.43z"/>
			<path id="&lt;Path&gt;" class="s2" d="m-3485.52 176.47c0 0.79-0.64 1.43-1.43 1.43-0.79 0-1.43-0.64-1.43-1.43 0-0.79 0.64-1.43 1.43-1.43 0.79 0 1.43 0.64 1.43 1.43z"/>
			<path id="&lt;Path&gt;" class="s1" d="m-3471.22 302.31c0 0.79-0.64 1.43-1.43 1.43-0.79 0-1.43-0.64-1.43-1.43 0-0.79 0.64-1.43 1.43-1.43 0.79 0 1.43 0.64 1.43 1.43z"/>
			<path id="&lt;Path&gt;" class="s2" d="m-3436.91 235.1c0 0.79-0.64 1.43-1.43 1.43-0.79 0-1.43-0.64-1.43-1.43 0-0.79 0.64-1.43 1.43-1.43 0.79 0 1.43 0.64 1.43 1.43z"/>
			<path id="&lt;Path&gt;" class="s1" d="m-3442.62 393.82c0 0.79-0.65 1.43-1.43 1.43-0.79 0-1.43-0.64-1.43-1.43 0-0.79 0.64-1.43 1.43-1.43 0.78 0 1.43 0.64 1.43 1.43z"/>
			<path id="&lt;Path&gt;" class="s4" d="m-3784.38 503.93c0 0.79-0.64 1.43-1.43 1.43-0.79 0-1.43-0.64-1.43-1.43 0-0.79 0.64-1.43 1.43-1.43 0.79 0 1.43 0.64 1.43 1.43z"/>
			<path id="&lt;Path&gt;" class="s4" d="m-3748.63 468.18c0 0.79-0.64 1.43-1.43 1.43-0.79 0-1.43-0.64-1.43-1.43 0-0.79 0.64-1.43 1.43-1.43 0.79 0 1.43 0.64 1.43 1.43z"/>
			<path id="&lt;Path&gt;" class="s1" d="m-3657.11 529.66c0 0.79-0.64 1.44-1.43 1.44-0.79 0-1.43-0.65-1.43-1.44 0-0.78 0.64-1.43 1.43-1.43 0.79 0 1.43 0.65 1.43 1.43z"/>
			<path id="&lt;Path&gt;" class="s5" d="m-3579.9 792.77c0 0.79-0.64 1.43-1.43 1.43-0.79 0-1.43-0.64-1.43-1.43 0-0.79 0.64-1.43 1.43-1.43 0.79 0 1.43 0.64 1.43 1.43z"/>
			<path id="&lt;Path&gt;" class="s4" d="m-3502.68 855.69c0 0.79-0.64 1.43-1.43 1.43-0.79 0-1.43-0.64-1.43-1.43 0-0.79 0.64-1.43 1.43-1.43 0.79 0 1.43 0.64 1.43 1.43z"/>
			<path id="&lt;Path&gt;" class="s6" d="m-3914.5 900.02c0 0.79-0.64 1.43-1.43 1.43-0.79 0-1.43-0.64-1.43-1.43 0-0.79 0.64-1.43 1.43-1.43 0.79 0 1.43 0.64 1.43 1.43z"/>
			<path id="&lt;Path&gt;" class="s1" d="m-3691.43 1002.97c0 0.79-0.64 1.43-1.43 1.43-0.79 0-1.43-0.64-1.43-1.43 0-0.79 0.64-1.43 1.43-1.43 0.79 0 1.43 0.64 1.43 1.43z"/>
			<path id="&lt;Path&gt;" class="s1" d="m-3944.53 1038.72c0 0.79-0.64 1.43-1.43 1.43-0.79 0-1.43-0.64-1.43-1.43 0-0.79 0.64-1.43 1.43-1.43 0.79 0 1.43 0.64 1.43 1.43z"/>
			<path id="&lt;Path&gt;" class="s3" d="m-3634.24 1137.38c0 0.79-0.64 1.43-1.43 1.43-0.79 0-1.43-0.64-1.43-1.43 0-0.79 0.64-1.43 1.43-1.43 0.79 0 1.43 0.64 1.43 1.43z"/>
			<path id="&lt;Path&gt;" class="s3" d="m-3875.89 1135.95c0 0.79-0.64 1.43-1.43 1.43-0.79 0-1.43-0.64-1.43-1.43 0-0.79 0.64-1.43 1.43-1.43 0.79 0 1.43 0.64 1.43 1.43z"/>
			<path id="&lt;Path&gt;" class="s2" d="m-3551.3 954.35c0 0.79-0.64 1.43-1.43 1.43-0.79 0-1.43-0.64-1.43-1.43 0-0.79 0.64-1.43 1.43-1.43 0.79 0 1.43 0.64 1.43 1.43z"/>
			<path id="&lt;Path&gt;" class="s2" d="m-4234.81 1098.78c0 0.79-0.64 1.43-1.43 1.43-0.79 0-1.43-0.64-1.43-1.43 0-0.79 0.64-1.43 1.43-1.43 0.79 0 1.43 0.64 1.43 1.43z"/>
			<path id="&lt;Path&gt;" class="s3" d="m-4449.29 890.01c0 0.79-0.64 1.43-1.43 1.43-0.79 0-1.43-0.64-1.43-1.43 0-0.79 0.64-1.43 1.43-1.43 0.79 0 1.43 0.64 1.43 1.43z"/>
			<path id="&lt;Path&gt;" class="s1" d="m-3510.02 399.26c0 1.18-0.96 2.14-2.14 2.14-1.19 0-2.15-0.96-2.15-2.14 0-1.19 0.96-2.15 2.15-2.15 1.18 0 2.14 0.96 2.14 2.15z"/>
			<path id="&lt;Path&gt;" class="s3" d="m-4313.76 670.98c0 1.19-0.96 2.15-2.14 2.15-1.19 0-2.15-0.96-2.15-2.15 0-1.18 0.96-2.14 2.15-2.14 1.18 0 2.14 0.96 2.14 2.14z"/>
			<path id="&lt;Path&gt;" class="s4" d="m-4515.41 765.37c0 1.19-0.96 2.15-2.14 2.15-1.19 0-2.15-0.96-2.15-2.15 0-1.18 0.96-2.14 2.15-2.14 1.18 0 2.14 0.96 2.14 2.14z"/>
			<path id="&lt;Path&gt;" class="s4" d="m-3459.25 33.86c0 1.18-0.96 2.14-2.14 2.14-1.19 0-2.15-0.96-2.15-2.14 0-1.19 0.96-2.15 2.15-2.15 1.18 0 2.14 0.96 2.14 2.15z"/>
			<path id="&lt;Path&gt;" class="s2" d="m-3479.27 909.1c0 1.19-0.96 2.15-2.14 2.15-1.19 0-2.15-0.96-2.15-2.15 0-1.18 0.96-2.14 2.15-2.14 1.18 0 2.14 0.96 2.14 2.14z"/>
			<path id="&lt;Path&gt;" class="s3" d="m-3438.51 1074.28c0 1.19-0.96 2.15-2.14 2.15-1.19 0-2.15-0.96-2.15-2.15 0-1.18 0.96-2.14 2.15-2.14 1.18 0 2.14 0.96 2.14 2.14z"/>
			<path id="&lt;Path&gt;" class="s4" d="m-3522.17 1115.04c0 1.19-0.96 2.15-2.15 2.15-1.18 0-2.14-0.96-2.14-2.15 0-1.18 0.96-2.14 2.14-2.14 1.19 0 2.15 0.96 2.15 2.14z"/>
			<path id="&lt;Path&gt;" class="s2" d="m-3933.34 965.59c0 1.19-0.96 2.15-2.14 2.15-1.19 0-2.15-0.96-2.15-2.15 0-1.18 0.96-2.14 2.15-2.14 1.18 0 2.14 0.96 2.14 2.14z"/>
			<path id="&lt;Path&gt;" class="s3" d="m-4088.51 1115.04c0 1.19-0.96 2.15-2.14 2.15-1.19 0-2.15-0.96-2.15-2.15 0-1.18 0.96-2.14 2.15-2.14 1.18 0 2.14 0.96 2.14 2.14z"/>
			<path id="&lt;Path&gt;" class="s4" d="m-4303.75 919.83c0 1.18-0.96 2.14-2.14 2.14-1.19 0-2.15-0.96-2.15-2.14 0-1.19 0.96-2.15 2.15-2.15 1.18 0 2.14 0.96 2.14 2.15z"/>
			<path id="&lt;Path&gt;" class="s1" d="m-4412.44 1008.5c0 1.18-0.96 2.14-2.14 2.14-1.19 0-2.15-0.96-2.15-2.14 0-1.19 0.96-2.15 2.15-2.15 1.18 0 2.14 0.96 2.14 2.15z"/>
			<path id="&lt;Path&gt;" class="s3" d="m-4399.57 636.66c0 1.19-0.96 2.15-2.14 2.15-1.19 0-2.15-0.96-2.15-2.15 0-1.18 0.96-2.14 2.15-2.14 1.18 0 2.14 0.96 2.14 2.14z"/>
			<path id="&lt;Path&gt;" class="s5" d="m-4466.07 655.97c0 1.18-0.96 2.14-2.14 2.14-1.19 0-2.15-0.96-2.15-2.14 0-1.19 0.96-2.15 2.15-2.15 1.18 0 2.14 0.96 2.14 2.15z"/>
			<path id="&lt;Path&gt;" class="s1" d="m-4377.4 341.34c0 1.18-0.96 2.14-2.14 2.14-1.19 0-2.15-0.96-2.15-2.14 0-1.19 0.96-2.15 2.15-2.15 1.18 0 2.14 0.96 2.14 2.15z"/>
			<path id="&lt;Path&gt;" class="s1" d="m-4501.11 15.98c0 1.18-0.96 2.14-2.14 2.14-1.19 0-2.15-0.96-2.15-2.14 0-1.19 0.96-2.15 2.15-2.15 1.18 0 2.14 0.96 2.14 2.15z"/>
			<path id="&lt;Path&gt;" class="s4" d="m-4210.79 27.42c0 1.18-0.96 2.14-2.14 2.14-1.19 0-2.15-0.96-2.15-2.14 0-1.18 0.96-2.15 2.15-2.15 1.18 0 2.14 0.97 2.14 2.15z"/>
			<path id="&lt;Path&gt;" class="s2" d="m-3464.25 565.15c0 1.19-0.96 2.15-2.15 2.15-1.18 0-2.14-0.96-2.14-2.15 0-1.18 0.96-2.14 2.14-2.14 1.19 0 2.15 0.96 2.15 2.14z"/>
			<path id="&lt;Path&gt;" class="s3" d="m-3601.55 219.06c0 1.18-0.96 2.14-2.14 2.14-1.19 0-2.15-0.96-2.15-2.14 0-1.19 0.96-2.15 2.15-2.15 1.18 0 2.14 0.96 2.14 2.15z"/>
			<path id="&lt;Path&gt;" class="s1" d="m-3439.94 104.65c0 1.18-0.96 2.14-2.15 2.14-1.18 0-2.14-0.96-2.14-2.14 0-1.19 0.96-2.15 2.14-2.15 1.19 0 2.15 0.96 2.15 2.15z"/>
			<path id="&lt;Path&gt;" class="s2" d="m-4206.5 224.78c0 1.18-0.96 2.14-2.14 2.14-1.19 0-2.15-0.96-2.15-2.14 0-1.19 0.96-2.15 2.15-2.15 1.18 0 2.14 0.96 2.14 2.15z"/>
			<path id="&lt;Path&gt;" class="s1" d="m-4311.61 448.6c0 1.18-0.96 2.14-2.15 2.14-1.18 0-2.14-0.96-2.14-2.14 0-1.19 0.96-2.15 2.14-2.15 1.19 0 2.15 0.96 2.15 2.15z"/>
			<path id="&lt;Path&gt;" class="s5" d="m-4044.89 862.62c0 1.19-0.96 2.15-2.15 2.15-1.18 0-2.14-0.96-2.14-2.15 0-1.18 0.96-2.14 2.14-2.14 1.19 0 2.15 0.96 2.15 2.14z"/>
			<path id="&lt;Path&gt;" class="s1" d="m-4017.72 1002.78c0 1.18-0.96 2.14-2.14 2.14-1.19 0-2.15-0.96-2.15-2.14 0-1.19 0.96-2.15 2.15-2.15 1.18 0 2.14 0.96 2.14 2.15z"/>
			<path id="&lt;Path&gt;" class="s1" d="m-4017.72 462.18c0 1.19-0.96 2.15-2.14 2.15-1.19 0-2.15-0.96-2.15-2.15 0-1.18 0.96-2.14 2.15-2.14 1.18 0 2.14 0.96 2.14 2.14z"/>
			<path id="&lt;Path&gt;" class="s3" d="m-4462.88 201.5c0 1.18-0.96 2.14-2.14 2.14-1.19 0-2.15-0.96-2.15-2.14 0-1.19 0.96-2.15 2.15-2.15 1.18 0 2.14 0.96 2.14 2.15z"/>
			<path id="&lt;Path&gt;" class="s2" d="m-3868.98 307.73c0 1.18-0.96 2.14-2.15 2.14-1.18 0-2.14-0.96-2.14-2.14 0-1.19 0.96-2.15 2.14-2.15 1.19 0 2.15 0.96 2.15 2.15z"/>
			<path id="&lt;Path&gt;" class="s2" d="m-3791.04 20.98c0 1.19-0.96 2.15-2.15 2.15-1.18 0-2.14-0.96-2.14-2.15 0-1.18 0.96-2.14 2.14-2.14 1.19 0 2.15 0.96 2.15 2.14z"/>
			<path id="&lt;Path&gt;" class="s2" d="m-3914.75 116.09c0 1.18-0.96 2.14-2.14 2.14-1.19 0-2.15-0.96-2.15-2.14 0-1.19 0.96-2.15 2.15-2.15 1.18 0 2.14 0.96 2.14 2.15z"/>
			<path id="&lt;Path&gt;" class="s1" d="m-4097.09 99.64c0 1.19-0.96 2.15-2.15 2.15-1.18 0-2.14-0.96-2.14-2.15 0-1.18 0.96-2.14 2.14-2.14 1.19 0 2.15 0.96 2.15 2.14z"/>
			<path id="&lt;Path&gt;" class="s5" d="m-4395.28 253.38c0 1.19-0.96 2.15-2.14 2.15-1.19 0-2.15-0.96-2.15-2.15 0-1.18 0.96-2.14 2.15-2.14 1.18 0 2.14 0.96 2.14 2.14z"/>
			<path id="&lt;Path&gt;" class="s4" d="m-3715.96 453.6c0 1.19-0.96 2.15-2.14 2.15-1.19 0-2.15-0.96-2.15-2.15 0-1.18 0.96-2.14 2.15-2.14 1.18 0 2.14 0.96 2.14 2.14z"/>
			<path id="&lt;Path&gt;" class="s4" d="m-3679.49 1086.44c0 1.19-0.96 2.15-2.14 2.15-1.19 0-2.15-0.96-2.15-2.15 0-1.18 0.96-2.14 2.15-2.14 1.18 0 2.14 0.96 2.14 2.14z"/>
			<path id="&lt;Path&gt;" class="s5" d="m-3515.74 1034.24c0 1.19-0.96 2.15-2.14 2.15-1.19 0-2.15-0.96-2.15-2.15 0-1.18 0.96-2.14 2.15-2.14 1.18 0 2.14 0.96 2.14 2.14z"/>
			<path id="&lt;Path&gt;" class="s5" d="m-3722.39 42.44c0 1.18-0.96 2.14-2.15 2.14-1.18 0-2.14-0.96-2.14-2.14 0-1.19 0.96-2.15 2.14-2.15 1.19 0 2.15 0.96 2.15 2.15z"/>
			<path id="&lt;Path&gt;" class="s5" d="m-3650.89 302.72c0 1.19-0.96 2.15-2.14 2.15-1.19 0-2.15-0.96-2.15-2.15 0-1.18 0.96-2.14 2.15-2.14 1.18 0 2.14 0.96 2.14 2.14z"/>
			<path id="&lt;Path&gt;" class="s4" d="m-4376.68 845.46c0 1.19-0.96 2.15-2.15 2.15-1.18 0-2.14-0.96-2.14-2.15 0-1.18 0.96-2.14 2.14-2.14 1.19 0 2.15 0.96 2.15 2.14z"/>
			<path id="&lt;Path&gt;" class="s1" d="m-4282.29 799.7c0 1.18-0.96 2.14-2.15 2.14-1.18 0-2.14-0.96-2.14-2.14 0-1.19 0.96-2.15 2.14-2.15 1.19 0 2.15 0.96 2.15 2.15z"/>
			<path id="&lt;Path&gt;" class="s4" d="m-4417.12 721.28c0 1.18-0.96 2.14-2.15 2.14-1.18 0-2.14-0.96-2.14-2.14 0-1.19 0.96-2.15 2.14-2.15 1.19 0 2.15 0.96 2.15 2.15z"/>
			<path id="&lt;Path&gt;" class="s3" d="m-4549.02 923.4c0 1.19-0.96 2.15-2.14 2.15-1.19 0-2.15-0.96-2.15-2.15 0-1.18 0.96-2.14 2.15-2.14 1.18 0 2.14 0.96 2.14 2.14z"/>
			<path id="&lt;Path&gt;" class="s3" d="m-4451.05 467.9c0 1.19-0.96 2.15-2.15 2.15-1.18 0-2.14-0.96-2.14-2.15 0-1.18 0.96-2.14 2.14-2.14 1.19 0 2.15 0.96 2.15 2.14z"/>
			<path id="&lt;Path&gt;" class="s1" d="m-4080.64 416.42c0 1.18-0.96 2.14-2.15 2.14-1.18 0-2.14-0.96-2.14-2.14 0-1.19 0.96-2.15 2.14-2.15 1.19 0 2.15 0.96 2.15 2.15z"/>
			<path id="&lt;Path&gt;" class="s5" d="m-3791.04 431.44c0 1.18-0.96 2.14-2.15 2.14-1.18 0-2.14-0.96-2.14-2.14 0-1.19 0.96-2.15 2.14-2.15 1.19 0 2.15 0.96 2.15 2.15z"/>
			<path id="&lt;Path&gt;" class="s3" d="m-3801.77 270.54c0 1.19-0.96 2.15-2.14 2.15-1.19 0-2.15-0.96-2.15-2.15 0-1.18 0.96-2.14 2.15-2.14 1.18 0 2.14 0.96 2.14 2.14z"/>
			<path id="&lt;Path&gt;" class="s2" d="m-4001.99 290.57c0 1.18-0.96 2.14-2.14 2.14-1.19 0-2.15-0.96-2.15-2.14 0-1.19 0.96-2.15 2.15-2.15 1.18 0 2.14 0.96 2.14 2.15z"/>
			<path id="&lt;Path&gt;" class="s2" d="m-4126.41 307.73c0 1.18-0.96 2.14-2.14 2.14-1.19 0-2.15-0.96-2.15-2.14 0-1.19 0.96-2.15 2.15-2.15 1.18 0 2.14 0.96 2.14 2.15z"/>
			<path id="&lt;Path&gt;" class="s4" d="m-4246.54 153.27c0 1.19-0.96 2.15-2.15 2.15-1.18 0-2.14-0.96-2.14-2.15 0-1.18 0.96-2.14 2.14-2.14 1.19 0 2.15 0.96 2.15 2.14z"/>
			<path id="&lt;Path&gt;" class="s4" d="m-4265.85 33.86c0 1.18-0.96 2.14-2.14 2.14-1.19 0-2.15-0.96-2.15-2.14 0-1.19 0.96-2.15 2.15-2.15 1.18 0 2.14 0.96 2.14 2.15z"/>
			<path id="&lt;Path&gt;" class="s3" d="m-4369.22 120.71c0 1.57-1.28 2.86-2.86 2.86-1.58 0-2.86-1.29-2.86-2.86 0-1.58 1.28-2.86 2.86-2.86 1.58 0 2.86 1.28 2.86 2.86z"/>
			<path id="&lt;Path&gt;" class="s3" d="m-4403.54 322.33c0-3.95 3.2-7.15 7.15-7.15 3.95 0 7.15 3.2 7.15 7.15 0 3.94-3.2 7.14-7.15 7.14-3.95 0-7.15-3.2-7.15-7.14z"/>
			<path id="&lt;Path&gt;" class="s5" d="m-4545.1 488.2c0 1.58-1.28 2.86-2.86 2.86-1.58 0-2.86-1.28-2.86-2.86 0-1.58 1.28-2.86 2.86-2.86 1.58 0 2.86 1.28 2.86 2.86z"/>
			<path id="&lt;Path&gt;" class="s3" d="m-4560.84 618.32c0 2.37-1.92 4.29-4.29 4.29-2.37 0-4.29-1.92-4.29-4.29 0-2.37 1.92-4.29 4.29-4.29 2.37 0 4.29 1.92 4.29 4.29z"/>
			<path id="&lt;Path&gt;" class="s3" d="m-4530.8 561.12c0 3.95-3.2 7.15-7.15 7.15-3.95 0-7.15-3.2-7.15-7.15 0-3.95 3.2-7.15 7.15-7.15 3.95 0 7.15 3.2 7.15 7.15z"/>
			<path id="&lt;Path&gt;" class="s3" d="m-4430.71 601.88c0 2.76-2.24 5-5 5-2.76 0-5.01-2.24-5.01-5 0-2.77 2.25-5.01 5.01-5.01 2.76 0 5 2.24 5 5.01z"/>
			<path id="&lt;Path&gt;" class="s1" d="m-4387.81 10.6c0 2.77-2.24 5.01-5 5.01-2.77 0-5.01-2.24-5.01-5.01 0-2.76 2.24-5 5.01-5 2.76 0 5 2.24 5 5z"/>
			<path id="&lt;Path&gt;" class="s3" d="m-4387.67 793.49c-11.71 1.9-13.25 3.44-15.15 15.15-1.9-11.71-3.44-13.25-15.15-15.15 11.71-1.9 13.25-3.44 15.15-15.15 1.9 11.71 3.44 13.25 15.15 15.15z"/>
			<path id="&lt;Path&gt;" class="s5" d="m-4369.22 785.62c0 1.58-1.28 2.86-2.86 2.86-1.58 0-2.86-1.28-2.86-2.86 0-1.58 1.28-2.86 2.86-2.86 1.58 0 2.86 1.28 2.86 2.86z"/>
			<path id="&lt;Path&gt;" class="s4" d="m-4231.52 869.99c-18.01 2.92-20.38 5.29-23.3 23.31-2.93-18.02-5.3-20.39-23.31-23.31 18.01-2.92 20.38-5.29 23.31-23.31 2.92 18.02 5.29 20.39 23.3 23.31z"/>
			<path id="&lt;Path&gt;" class="s4" d="m-4054.63 706.98c0 3.94-3.21 7.15-7.15 7.15-3.95 0-7.15-3.21-7.15-7.15 0-3.95 3.2-7.15 7.15-7.15 3.94 0 7.15 3.2 7.15 7.15z"/>
			<path id="&lt;Path&gt;" class="s1" d="m-3864.45 533.24c0 1.97-1.6 3.57-3.58 3.57-1.97 0-3.57-1.6-3.57-3.57 0-1.97 1.6-3.58 3.57-3.58 1.98 0 3.58 1.61 3.58 3.58z"/>
			<path id="&lt;Path&gt;" class="s3" d="m-3812.98 390.96c0 3.16-2.56 5.72-5.72 5.72-3.16 0-5.72-2.56-5.72-5.72 0-3.16 2.56-5.72 5.72-5.72 3.16 0 5.72 2.56 5.72 5.72z"/>
			<path id="&lt;Path&gt;" class="s4" d="m-4034.23 409.93c0 3.16-2.56 5.72-5.72 5.72-3.16 0-5.72-2.56-5.72-5.72 0-3.16 2.56-5.72 5.72-5.72 3.16 0 5.72 2.56 5.72 5.72z"/>
			<path id="&lt;Path&gt;" class="s5" d="m-3948.82 250.83c0 4.74-3.84 8.58-8.58 8.58-4.74 0-8.58-3.84-8.58-8.58 0-4.74 3.84-8.58 8.58-8.58 4.74 0 8.58 3.84 8.58 8.58z"/>
			<path id="&lt;Path&gt;" class="s3" d="m-3716.59 117.85c-12.61 2.04-14.27 3.7-16.31 16.31-2.05-12.61-3.7-14.27-16.32-16.31 12.62-2.05 14.27-3.71 16.32-16.32 2.04 12.61 3.7 14.27 16.32 16.32z"/>
			<path id="&lt;Path&gt;" class="s3" d="m-3991.21 164.32c-15.31 2.48-17.33 4.5-19.81 19.81-2.49-15.31-4.5-17.33-19.81-19.81 15.31-2.49 17.32-4.5 19.81-19.81 2.48 15.31 4.5 17.32 19.81 19.81z"/>
			<path id="&lt;Path&gt;" class="s4" d="m-3771.51 237.96c0 3.16-2.56 5.72-5.72 5.72-3.16 0-5.72-2.56-5.72-5.72 0-3.16 2.56-5.72 5.72-5.72 3.16 0 5.72 2.56 5.72 5.72z"/>
			<path id="&lt;Path&gt;" class="s1" d="m-3814.41 388.1c0 2.37-1.92 4.29-4.29 4.29-2.37 0-4.29-1.92-4.29-4.29 0-2.37 1.92-4.29 4.29-4.29 2.37 0 4.29 1.92 4.29 4.29z"/>
			<path id="&lt;Path&gt;" class="s1" d="m-3604.21 414.56c0 3.55-2.88 6.43-6.43 6.43-3.56 0-6.44-2.88-6.44-6.43 0-3.56 2.88-6.44 6.44-6.44 3.55 0 6.43 2.88 6.43 6.44z"/>
			<path id="&lt;Path&gt;" class="s2" d="m-3582.76 664.08c0 3.95-3.2 7.15-7.15 7.15-3.95 0-7.15-3.2-7.15-7.15 0-3.95 3.2-7.15 7.15-7.15 3.95 0 7.15 3.2 7.15 7.15z"/>
			<path id="&lt;Path&gt;" class="s1" d="m-3784.38 822.8c0 4.74-3.84 8.58-8.58 8.58-4.74 0-8.58-3.84-8.58-8.58 0-4.74 3.84-8.58 8.58-8.58 4.74 0 8.58 3.84 8.58 8.58z"/>
			<path id="&lt;Path&gt;" class="s2" d="m-4244.81 1051.59c0 2.37-1.93 4.29-4.29 4.29-2.37 0-4.29-1.92-4.29-4.29 0-2.37 1.92-4.29 4.29-4.29 2.36 0 4.29 1.92 4.29 4.29z"/>
			<path id="&lt;Path&gt;" class="s2" d="m-4259.41 251.95c0 5.53-4.48 10.01-10.01 10.01-5.53 0-10.01-4.48-10.01-10.01 0-5.53 4.48-10.01 10.01-10.01 5.53 0 10.01 4.48 10.01 10.01z"/>
			<path id="&lt;Path&gt;" class="s4" d="m-4238.24 404.21c0 3.16-2.56 5.72-5.72 5.72-3.16 0-5.72-2.56-5.72-5.72 0-3.16 2.56-5.72 5.72-5.72 3.16 0 5.72 2.56 5.72 5.72z"/>
			<path id="&lt;Path&gt;" class="s4" d="m-4330.92 233.36c0 1.58-1.28 2.86-2.86 2.86-1.58 0-2.86-1.28-2.86-2.86 0-1.58 1.28-2.86 2.86-2.86 1.58 0 2.86 1.28 2.86 2.86z"/>
			<path id="&lt;Path&gt;" class="s6" d="m-3965.12 516.53c-10.81 1.75-12.23 3.17-13.98 13.99-1.76-10.82-3.18-12.24-13.99-13.99 10.81-1.75 12.23-3.18 13.99-13.99 1.75 10.81 3.17 12.24 13.98 13.99z"/>
			<path id="&lt;Path&gt;" class="s6" d="m-4255.97 575.16c-12.61 2.05-14.27 3.71-16.31 16.32-2.05-12.61-3.71-14.27-16.32-16.32 12.61-2.04 14.27-3.7 16.32-16.31 2.04 12.61 3.7 14.27 16.31 16.31z"/>
			<path id="&lt;Path&gt;" class="s5" d="m-3895.32 807.07c-12.62 2.05-14.28 3.71-16.32 16.32-2.05-12.61-3.71-14.27-16.32-16.32 12.61-2.04 14.27-3.7 16.32-16.32 2.04 12.62 3.7 14.28 16.32 16.32z"/>
			<path id="&lt;Path&gt;" class="s1" d="m-3504.95 215.08c-12.62 2.05-14.28 3.7-16.32 16.32-2.05-12.62-3.71-14.27-16.32-16.32 12.61-2.04 14.27-3.7 16.32-16.32 2.04 12.62 3.7 14.28 16.32 16.32z"/>
			<path id="&lt;Path&gt;" class="s3" d="m-4156.44 497.94c0 3.95-3.2 7.15-7.15 7.15-3.95 0-7.15-3.2-7.15-7.15 0-3.95 3.2-7.15 7.15-7.15 3.95 0 7.15 3.2 7.15 7.15z"/>
			<path id="&lt;Path&gt;" class="s1" d="m-4136.42 622.36c0 1.58-1.28 2.86-2.86 2.86-1.58 0-2.86-1.28-2.86-2.86 0-1.58 1.28-2.86 2.86-2.86 1.58 0 2.86 1.28 2.86 2.86z"/>
			<path id="&lt;Path&gt;" class="s3" d="m-3959.08 911.25c0 4.74-3.84 8.58-8.58 8.58-4.74 0-8.58-3.84-8.58-8.58 0-4.74 3.84-8.58 8.58-8.58 4.74 0 8.58 3.84 8.58 8.58z"/>
			<path id="&lt;Path&gt;" class="s5" d="m-4425.31 972.74c0 3.95-3.2 7.16-7.15 7.16-3.95 0-7.15-3.21-7.15-7.16 0-3.94 3.2-7.15 7.15-7.15 3.95 0 7.15 3.21 7.15 7.15z"/>
			<path id="&lt;Path&gt;" class="s5" d="m-4513.98 876.92c0 1.58-1.28 2.87-2.86 2.87-1.58 0-2.86-1.29-2.86-2.87 0-1.57 1.28-2.86 2.86-2.86 1.58 0 2.86 1.29 2.86 2.86z"/>
			<path id="&lt;Path&gt;" class="s3" d="m-4534 722.47c0 3.16-2.56 5.72-5.72 5.72-3.16 0-5.72-2.56-5.72-5.72 0-3.16 2.56-5.72 5.72-5.72 3.16 0 5.72 2.56 5.72 5.72z"/>
			<path id="&lt;Path&gt;" class="s4" d="m-4505.4 1014.22c0 3.16-2.56 5.72-5.72 5.72-3.16 0-5.72-2.56-5.72-5.72 0-3.16 2.56-5.72 5.72-5.72 3.16 0 5.72 2.56 5.72 5.72z"/>
			<path id="&lt;Path&gt;" class="s3" d="m-4528.28 1124.34c0 5.53-4.48 10.01-10.01 10.01-5.53 0-10.01-4.48-10.01-10.01 0-5.53 4.48-10.01 10.01-10.01 5.53 0 10.01 4.48 10.01 10.01z"/>
			<path id="&lt;Path&gt;" class="s1" d="m-4341.77 1087.16c-12.62 2.04-14.28 3.7-16.32 16.31-2.05-12.61-3.71-14.27-16.32-16.31 12.61-2.05 14.27-3.71 16.32-16.32 2.04 12.61 3.7 14.27 16.32 16.32z"/>
			<path id="&lt;Path&gt;" class="s1" d="m-4436.75 1091.45c0 1.58-1.28 2.86-2.86 2.86-1.58 0-2.86-1.28-2.86-2.86 0-1.58 1.28-2.86 2.86-2.86 1.58 0 2.86 1.28 2.86 2.86z"/>
			<path id="&lt;Path&gt;" class="s5" d="m-4167.69 337.48c0 3.16-2.56 5.72-5.72 5.72-3.16 0-5.72-2.56-5.72-5.72 0-3.16 2.56-5.72 5.72-5.72 3.16 0 5.72 2.56 5.72 5.72z"/>
			<path id="&lt;Path&gt;" class="s1" d="m-4165.34 36c-10.81 1.75-12.23 3.18-13.98 13.99-1.76-10.81-3.18-12.24-13.99-13.99 10.81-1.75 12.23-3.17 13.99-13.99 1.75 10.82 3.17 12.24 13.98 13.99z"/>
			<path id="&lt;Path&gt;" class="s2" d="m-4185.04 110.37c0 1.58-1.29 2.86-2.86 2.86-1.58 0-2.87-1.28-2.87-2.86 0-1.58 1.29-2.86 2.87-2.86 1.57 0 2.86 1.28 2.86 2.86z"/>
			<path id="&lt;Path&gt;" class="s4" d="m-4073.49 190.46c0 3.16-2.56 5.72-5.72 5.72-3.16 0-5.72-2.56-5.72-5.72 0-3.16 2.56-5.72 5.72-5.72 3.16 0 5.72 2.56 5.72 5.72z"/>
			<path id="&lt;Path&gt;" class="s1" d="m-3520.87 66.03c-12.62 2.05-14.27 3.71-16.32 16.32-2.05-12.61-3.7-14.27-16.32-16.32 12.62-2.04 14.27-3.7 16.32-16.31 2.05 12.61 3.7 14.27 16.32 16.31z"/>
			<path id="&lt;Path&gt;" class="s4" d="m-3618.71 181.88c0 3.15-2.56 5.72-5.72 5.72-3.16 0-5.72-2.57-5.72-5.72 0-3.16 2.56-5.73 5.72-5.73 3.16 0 5.72 2.57 5.72 5.73z"/>
			<path id="&lt;Path&gt;" class="s2" d="m-3896.16 25.99c0 3.95-3.2 7.15-7.15 7.15-3.95 0-7.15-3.2-7.15-7.15 0-3.95 3.2-7.15 7.15-7.15 3.95 0 7.15 3.2 7.15 7.15z"/>
			<path id="&lt;Path&gt;" class="s2" d="m-3850.39 150.41c0 1.58-1.28 2.86-2.86 2.86-1.58 0-2.86-1.28-2.86-2.86 0-1.58 1.28-2.86 2.86-2.86 1.58 0 2.86 1.28 2.86 2.86z"/>
			<path id="&lt;Path&gt;" class="s4" d="m-3995.68 66.03c-12.61 2.05-14.27 3.71-16.32 16.32-2.04-12.61-3.7-14.27-16.31-16.32 12.61-2.04 14.27-3.7 16.31-16.31 2.05 12.61 3.71 14.27 16.32 16.31z"/>
			<path id="&lt;Path&gt;" class="s3" d="m-3689.63 314.88c-12.61 2.04-14.27 3.7-16.32 16.32-2.04-12.62-3.7-14.28-16.31-16.32 12.61-2.05 14.27-3.71 16.31-16.32 2.05 12.61 3.71 14.27 16.32 16.32z"/>
			<path id="&lt;Path&gt;" class="s4" d="m-3921.73 347.01c0 3.16-2.56 5.72-5.72 5.72-3.16 0-5.72-2.56-5.72-5.72 0-3.16 2.56-5.72 5.72-5.72 3.16 0 5.72 2.56 5.72 5.72z"/>
			<path id="&lt;Path&gt;" class="s1" d="m-3687.83 549.42c-16.21 2.63-18.35 4.76-20.98 20.98-2.63-16.22-4.76-18.35-20.98-20.98 16.22-2.63 18.35-4.76 20.98-20.98 2.63 16.22 4.77 18.35 20.98 20.98z"/>
			<path id="&lt;Path&gt;" class="s2" d="m-3878.99 672.41c0 3.95-3.21 7.16-7.15 7.16-3.95 0-7.16-3.21-7.16-7.16 0-3.94 3.21-7.15 7.16-7.15 3.94 0 7.15 3.21 7.15 7.15z"/>
			<path id="&lt;Path&gt;" class="s2" d="m-3567.36 905.53c-15.37 2.49-17.39 4.51-19.88 19.88-2.5-15.37-4.52-17.39-19.89-19.88 15.37-2.5 17.39-4.52 19.89-19.89 2.49 15.37 4.51 17.39 19.88 19.89z"/>
			<path id="&lt;Path&gt;" class="s4" d="m-3793.19 1015.65c0 3.95-3.2 7.15-7.15 7.15-3.95 0-7.15-3.2-7.15-7.15 0-3.95 3.2-7.15 7.15-7.15 3.95 0 7.15 3.2 7.15 7.15z"/>
			<path id="&lt;Path&gt;" class="s1" d="m-4009.08 1082.87c-14.42 2.33-16.31 4.23-18.65 18.64-2.34-14.41-4.23-16.31-18.65-18.64 14.42-2.34 16.31-4.24 18.65-18.65 2.34 14.41 4.23 16.31 18.65 18.65z"/>
			<path id="&lt;Path&gt;" class="s1" d="m-4110.68 935.56c0 3.95-3.2 7.15-7.15 7.15-3.95 0-7.15-3.2-7.15-7.15 0-3.95 3.2-7.15 7.15-7.15 3.95 0 7.15 3.2 7.15 7.15z"/>
			<path id="&lt;Path&gt;" class="s3" d="m-3551.33 1074.28c-18.92 3.07-21.4 5.56-24.47 24.48-3.07-18.92-5.56-21.41-24.48-24.48 18.92-3.06 21.41-5.55 24.48-24.47 3.07 18.92 5.55 21.41 24.47 24.47z"/>
			<path id="&lt;Path&gt;" class="s3" d="m-3458.53 796.84c0 3.16-2.56 5.72-5.72 5.72-3.16 0-5.72-2.56-5.72-5.72 0-3.16 2.56-5.72 5.72-5.72 3.16 0 5.72 2.56 5.72 5.72z"/>
			<path id="&lt;Path&gt;" class="s1" d="m-3653.03 762.51c0 3.16-2.56 5.72-5.72 5.72-3.16 0-5.72-2.56-5.72-5.72 0-3.16 2.56-5.72 5.72-5.72 3.16 0 5.72 2.56 5.72 5.72z"/>
			<path id="&lt;Path&gt;" class="s6" d="m-3767.44 681c0 2.36-1.92 4.29-4.29 4.29-2.37 0-4.29-1.93-4.29-4.29 0-2.37 1.92-4.3 4.29-4.3 2.37 0 4.29 1.93 4.29 4.3z"/>
			<path id="&lt;Path&gt;" class="s4" d="m-3984.82 783.97c0 3.94-3.21 7.15-7.16 7.15-3.94 0-7.15-3.21-7.15-7.15 0-3.95 3.21-7.16 7.15-7.16 3.95 0 7.16 3.21 7.16 7.16z"/>
			<path id="&lt;Path&gt;" class="s4" d="m-3973.38 652.39c0 2.37-1.92 4.29-4.29 4.29-2.37 0-4.29-1.92-4.29-4.29 0-2.37 1.92-4.29 4.29-4.29 2.37 0 4.29 1.92 4.29 4.29z"/>
			<path id="&lt;Path&gt;" class="s5" d="m-4219.37 703.88c0 2.37-1.92 4.29-4.29 4.29-2.37 0-4.29-1.92-4.29-4.29 0-2.37 1.92-4.29 4.29-4.29 2.37 0 4.29 1.92 4.29 4.29z"/>
			<path id="&lt;Path&gt;" class="s5" d="m-3853.25 971.31c0 2.37-1.92 4.29-4.29 4.29-2.37 0-4.29-1.92-4.29-4.29 0-2.37 1.92-4.29 4.29-4.29 2.37 0 4.29 1.92 4.29 4.29z"/>
			<path id="&lt;Path&gt;" class="s1" d="m-3457.1 649.53c0 2.37-1.92 4.29-4.29 4.29-2.37 0-4.29-1.92-4.29-4.29 0-2.37 1.92-4.29 4.29-4.29 2.37 0 4.29 1.92 4.29 4.29z"/>
			<path id="&lt;Path&gt;" class="s1" d="m-4419.59 437.87c0 2.37-1.92 4.29-4.29 4.29-2.37 0-4.29-1.92-4.29-4.29 0-2.37 1.92-4.29 4.29-4.29 2.37 0 4.29 1.92 4.29 4.29z"/>
			<path id="&lt;Path&gt;" class="s1" d="m-3684.49 28.85c0 3.95-3.21 7.15-7.15 7.15-3.95 0-7.16-3.2-7.16-7.15 0-3.95 3.21-7.15 7.16-7.15 3.94 0 7.15 3.2 7.15 7.15z"/>
			<path id="&lt;Path&gt;" class="s1" d="m-3595.83 1025.66c0 3.95-3.2 7.15-7.15 7.15-3.95 0-7.15-3.2-7.15-7.15 0-3.95 3.2-7.15 7.15-7.15 3.95 0 7.15 3.2 7.15 7.15z"/>
			<path id="&lt;Path&gt;" class="s2" d="m-4390.77 532.26c-9.01 1.46-10.2 2.65-11.66 11.66-1.46-9.01-2.64-10.2-11.65-11.66 9.01-1.46 10.19-2.65 11.65-11.66 1.46 9.01 2.65 10.2 11.66 11.66z"/>
			<path id="&lt;Path&gt;" class="s4" d="m-4521.04 432.15c0 3.21-2.6 5.81-5.81 5.81-3.21 0-5.81-2.6-5.81-5.81 0-3.21 2.6-5.81 5.81-5.81 3.21 0 5.81 2.6 5.81 5.81z"/>
			<path id="&lt;Path&gt;" class="s1" d="m-4522.56 138.97c0 3.21-2.6 5.81-5.81 5.81-3.21 0-5.81-2.6-5.81-5.81 0-3.21 2.6-5.81 5.81-5.81 3.21 0 5.81 2.6 5.81 5.81z"/>
			<path id="&lt;Path&gt;" class="s3" d="m-4170.56 785.4c0 3.2-2.61 5.81-5.81 5.81-3.21 0-5.81-2.61-5.81-5.81 0-3.21 2.6-5.81 5.81-5.81 3.2 0 5.81 2.6 5.81 5.81z"/>
			<path id="&lt;Path&gt;" class="s3" d="m-4196.31 959.87c0 3.21-2.6 5.81-5.81 5.81-3.21 0-5.81-2.6-5.81-5.81 0-3.21 2.6-5.81 5.81-5.81 3.21 0 5.81 2.6 5.81 5.81z"/>
			<path id="&lt;Path&gt;" class="s4" d="m-4179.23 1120.05c0 3.21-2.61 5.81-5.81 5.81-3.21 0-5.81-2.6-5.81-5.81 0-3.21 2.6-5.81 5.81-5.81 3.2 0 5.81 2.6 5.81 5.81z"/>
			<path id="&lt;Path&gt;" class="s4" d="m-3673.05 842.6c0 3.21-2.6 5.81-5.81 5.81-3.21 0-5.81-2.6-5.81-5.81 0-3.21 2.6-5.81 5.81-5.81 3.21 0 5.81 2.6 5.81 5.81z"/>
			<path id="&lt;Path&gt;" class="s1" d="m-3441.33 982.76c0 4.81-3.9 8.71-8.71 8.71-4.81 0-8.72-3.9-8.72-8.71 0-4.82 3.91-8.72 8.72-8.72 4.81 0 8.71 3.9 8.71 8.72z"/>
			<path id="&lt;Path&gt;" class="s4" d="m-3431.1 1128.8c0 3.21-2.6 5.81-5.81 5.81-3.2 0-5.81-2.6-5.81-5.81 0-3.2 2.61-5.8 5.81-5.8 3.21 0 5.81 2.6 5.81 5.8z"/>
			<path id="&lt;Path&gt;" class="s1" d="m-3452.81 204.76c0 3.16-2.56 5.72-5.72 5.72-3.16 0-5.72-2.56-5.72-5.72 0-3.16 2.56-5.72 5.72-5.72 3.16 0 5.72 2.56 5.72 5.72z"/>
			<path id="&lt;Path&gt;" class="s1" d="m-3521.46 290.57c0 3.16-2.56 5.72-5.72 5.72-3.16 0-5.72-2.56-5.72-5.72 0-3.16 2.56-5.72 5.72-5.72 3.16 0 5.72 2.56 5.72 5.72z"/>
			<path id="&lt;Path&gt;" class="s3" d="m-3501.49 499.37c14.41-2.34 16.31-4.24 18.65-18.65 2.33 14.41 4.23 16.31 18.64 18.65-14.41 2.33-16.31 4.23-18.64 18.65-2.34-14.42-4.24-16.32-18.65-18.65z"/>
			<path id="&lt;Path&gt;" class="s4" d="m-3558.64 560.86c0-2.37 1.92-4.29 4.29-4.29 2.37 0 4.29 1.92 4.29 4.29 0 2.37-1.92 4.29-4.29 4.29-2.37 0-4.29-1.92-4.29-4.29z"/>
		</g>
		<g id="&lt;Group&gt;">
			<path id="&lt;Path&gt;" class="s0" d="m1142.83 1144h-1142.83v-1144h1142.83z"/>
			<path id="&lt;Path&gt;" class="s6" d="m179.65 224.38c0 3.38-2.74 6.11-6.11 6.11-3.37 0-6.11-2.73-6.11-6.11 0-3.37 2.74-6.11 6.11-6.11 3.37 0 6.11 2.74 6.11 6.11z"/>
			<path id="&lt;Path&gt;" class="s3" d="m79.51 250.04c0 5.91-4.78 10.7-10.68 10.7-5.9 0-10.69-4.79-10.69-10.7 0-5.91 4.79-10.7 10.69-10.7 5.9 0 10.68 4.79 10.68 10.7z"/>
			<path id="&lt;Path&gt;" class="s4" d="m1034.61 92.73c0 3.37-2.73 6.11-6.1 6.11-3.37 0-6.11-2.74-6.11-6.11 0-3.38 2.74-6.12 6.11-6.12 3.37 0 6.1 2.74 6.1 6.12z"/>
			<path id="&lt;Path&gt;" class="s4" d="m1092.49 52.99c0 3.37-2.73 6.11-6.11 6.11-3.37 0-6.1-2.74-6.1-6.11 0-3.38 2.73-6.12 6.1-6.12 3.38 0 6.11 2.74 6.11 6.12z"/>
			<path id="&lt;Path&gt;" class="s3" d="m85.97 1050.92c0 3.38-2.73 6.11-6.1 6.11-3.38 0-6.11-2.73-6.11-6.11 0-3.37 2.73-6.11 6.11-6.11 3.37 0 6.1 2.74 6.1 6.11z"/>
			<path id="&lt;Path&gt;" class="s3" d="m515.11 580.54c0 3.37-2.73 6.11-6.11 6.11-3.37 0-6.1-2.74-6.1-6.11 0-3.38 2.73-6.12 6.1-6.12 3.38 0 6.11 2.74 6.11 6.12z"/>
			<path id="&lt;Path&gt;" class="s4" d="m1011.76 227.16c0 3.37-2.74 6.11-6.11 6.11-3.37 0-6.11-2.74-6.11-6.11 0-3.38 2.74-6.11 6.11-6.11 3.37 0 6.11 2.73 6.11 6.11z"/>
			<path id="&lt;Path&gt;" class="s5" d="m403.21 517.41c0 3.37-2.73 6.11-6.1 6.11-3.38 0-6.11-2.74-6.11-6.11 0-3.38 2.73-6.11 6.11-6.11 3.37 0 6.1 2.73 6.1 6.11z"/>
			<path id="&lt;Path&gt;" class="s3" d="m1080.62 633.11c0 3.38-2.74 6.11-6.11 6.11-3.37 0-6.1-2.73-6.1-6.11 0-3.37 2.73-6.11 6.1-6.11 3.37 0 6.11 2.74 6.11 6.11z"/>
			<path id="&lt;Path&gt;" class="s1" d="m915.12 1113.5c0 3.38-2.73 6.11-6.11 6.11-3.37 0-6.1-2.73-6.1-6.11 0-3.38 2.73-6.11 6.1-6.11 3.38 0 6.11 2.73 6.11 6.11z"/>
			<path id="&lt;Path&gt;" class="s3" d="m792.28 810.38c0 3.38-2.73 6.11-6.11 6.11-3.37 0-6.1-2.73-6.1-6.11 0-3.38 2.73-6.11 6.1-6.11 3.38 0 6.11 2.73 6.11 6.11z"/>
			<path id="&lt;Path&gt;" class="s4" d="m257.71 41.31c0 3.14-2.55 5.69-5.68 5.69-3.14 0-5.69-2.55-5.69-5.69 0-3.14 2.55-5.69 5.69-5.69 3.13 0 5.68 2.55 5.68 5.69z"/>
			<path id="&lt;Path&gt;" class="s6" d="m880.77 858.38c-15.75 3.24-20.9 8.4-24.14 24.16-0.51 2.49-4.08 2.49-4.6 0-3.24-15.76-8.39-20.92-24.13-24.16-2.49-0.52-2.49-4.09 0-4.61 15.74-3.24 20.89-8.4 24.13-24.16 0.52-2.49 4.09-2.49 4.6 0 3.24 15.76 8.39 20.92 24.14 24.16 2.49 0.52 2.49 4.09 0 4.61z"/>
			<path id="&lt;Path&gt;" class="s4" d="m991.49 844.63c0 1.44-1.17 2.6-2.6 2.6-1.44 0-2.6-1.16-2.6-2.6 0-1.43 1.16-2.6 2.6-2.6 1.43 0 2.6 1.17 2.6 2.6z"/>
			<path id="&lt;Path&gt;" class="s1" d="m564.57 258.4c0 1.44-1.17 2.6-2.6 2.6-1.44 0-2.6-1.16-2.6-2.6 0-1.43 1.16-2.6 2.6-2.6 1.43 0 2.6 1.17 2.6 2.6z"/>
			<path id="&lt;Path&gt;" class="s3" d="m162.86 753.71c0 1.44-1.16 2.6-2.6 2.6-1.43 0-2.59-1.16-2.59-2.6 0-1.43 1.16-2.6 2.59-2.6 1.44 0 2.6 1.17 2.6 2.6z"/>
			<path id="&lt;Path&gt;" class="s5" d="m511.45 919c0 1.44-1.16 2.6-2.6 2.6-1.43 0-2.59-1.16-2.59-2.6 0-1.44 1.16-2.6 2.59-2.6 1.44 0 2.6 1.16 2.6 2.6z"/>
			<path id="&lt;Path&gt;" class="s5" d="m239.72 1123.6c0 1.43-1.16 2.6-2.59 2.6-1.44 0-2.6-1.17-2.6-2.6 0-1.44 1.16-2.6 2.6-2.6 1.43 0 2.59 1.16 2.59 2.6z"/>
			<path id="&lt;Path&gt;" class="s3" d="m659.67 830.36c0 1.44-1.17 2.6-2.6 2.6-1.44 0-2.6-1.16-2.6-2.6 0-1.44 1.16-2.6 2.6-2.6 1.43 0 2.6 1.16 2.6 2.6z"/>
			<path id="&lt;Path&gt;" class="s4" d="m811.1 940.38c0 1.44-1.17 2.6-2.6 2.6-1.44 0-2.6-1.16-2.6-2.6 0-1.43 1.16-2.6 2.6-2.6 1.43 0 2.6 1.17 2.6 2.6z"/>
			<path id="&lt;Path&gt;" class="s3" d="m972.3 585.87c0 1.43-1.17 2.6-2.6 2.6-1.44 0-2.6-1.17-2.6-2.6 0-1.44 1.16-2.6 2.6-2.6 1.43 0 2.6 1.16 2.6 2.6z"/>
			<path id="&lt;Path&gt;" class="s4" d="m855.01 173.48c0 1.44-1.17 2.6-2.6 2.6-1.43 0-2.6-1.16-2.6-2.6 0-1.43 1.17-2.6 2.6-2.6 1.43 0 2.6 1.17 2.6 2.6z"/>
			<path id="&lt;Path&gt;" class="s5" d="m351.45 1001.13c0 2.02-1.64 3.67-3.67 3.67-2.02 0-3.66-1.65-3.66-3.67 0-2.03 1.64-3.67 3.66-3.67 2.03 0 3.67 1.64 3.67 3.67z"/>
			<path id="&lt;Path&gt;" class="s4" d="m804.58 342.12c0 2.03-1.64 3.67-3.66 3.67-2.02 0-3.66-1.64-3.66-3.67 0-2.03 1.64-3.67 3.66-3.67 2.02 0 3.66 1.64 3.66 3.67z"/>
			<path id="&lt;Path&gt;" class="s4" d="m242.74 395.92c0 2.02-1.64 3.66-3.66 3.66-2.03 0-3.67-1.64-3.67-3.66 0-2.03 1.64-3.67 3.67-3.67 2.02 0 3.66 1.64 3.66 3.67z"/>
			<path id="&lt;Path&gt;" class="s5" d="m48.48 542.22c0 2.02-1.64 3.67-3.66 3.67-2.03 0-3.67-1.65-3.67-3.67 0-2.03 1.64-3.67 3.67-3.67 2.02 0 3.66 1.64 3.66 3.67z"/>
			<path id="&lt;Path&gt;" class="s4" d="m241.25 1053.79c0 2.02-1.64 3.66-3.66 3.66-2.02 0-3.66-1.64-3.66-3.66 0-2.03 1.64-3.67 3.66-3.67 2.02 0 3.66 1.64 3.66 3.67z"/>
			<path id="&lt;Path&gt;" class="s5" d="m725.19 1089.16c0 2.02-1.64 3.67-3.66 3.67-2.03 0-3.67-1.65-3.67-3.67 0-2.03 1.64-3.67 3.67-3.67 2.02 0 3.66 1.64 3.66 3.67z"/>
			<path id="&lt;Path&gt;" class="s4" d="m1086.59 952.52c0 2.02-1.65 3.66-3.67 3.66-2.02 0-3.66-1.64-3.66-3.66 0-2.03 1.64-3.67 3.66-3.67 2.02 0 3.67 1.64 3.67 3.67z"/>
			<path id="&lt;Path&gt;" class="s4" d="m617.48 184.52c0 1.35-1.09 2.44-2.44 2.44-1.35 0-2.44-1.09-2.44-2.44 0-1.35 1.09-2.45 2.44-2.45 1.35 0 2.44 1.1 2.44 2.45z"/>
			<path id="&lt;Path&gt;" class="s5" d="m202.88 933.86c0 1.35-1.09 2.44-2.44 2.44-1.35 0-2.44-1.09-2.44-2.44 0-1.35 1.09-2.45 2.44-2.45 1.35 0 2.44 1.1 2.44 2.45z"/>
			<path id="&lt;Path&gt;" class="s4" d="m232.24 534.52c0 1.35-1.09 2.45-2.44 2.45-1.35 0-2.44-1.1-2.44-2.45 0-1.35 1.09-2.44 2.44-2.44 1.35 0 2.44 1.09 2.44 2.44z"/>
			<path id="&lt;Path&gt;" class="s4" d="m693.86 356.04c0 1.35-1.09 2.45-2.44 2.45-1.35 0-2.44-1.1-2.44-2.45 0-1.35 1.09-2.44 2.44-2.44 1.35 0 2.44 1.09 2.44 2.44z"/>
			<path id="&lt;Path&gt;" class="s3" d="m599.88 47.38c0 1.35-1.09 2.44-2.44 2.44-1.35 0-2.44-1.09-2.44-2.44 0-1.35 1.09-2.45 2.44-2.45 1.35 0 2.44 1.1 2.44 2.45z"/>
			<path id="&lt;Path&gt;" class="s1" d="m852.62 637.21c0 1.35-1.1 2.45-2.44 2.45-1.35 0-2.45-1.1-2.45-2.45 0-1.35 1.1-2.44 2.45-2.44 1.34 0 2.44 1.09 2.44 2.44z"/>
			<path id="&lt;Path&gt;" class="s2" d="m411.71 252.9c0 1.35-1.09 2.45-2.44 2.45-1.35 0-2.44-1.1-2.44-2.45 0-1.35 1.09-2.44 2.44-2.44 1.35 0 2.44 1.09 2.44 2.44z"/>
			<path id="&lt;Path&gt;" class="s1" d="m1122.78 247.6c0 1.35-1.1 2.44-2.45 2.44-1.34 0-2.44-1.09-2.44-2.44 0-1.35 1.1-2.45 2.44-2.45 1.35 0 2.45 1.1 2.45 2.45z"/>
			<path id="&lt;Path&gt;" class="s4" d="m938.1 456.29c0 1.35-1.09 2.44-2.44 2.44-1.35 0-2.44-1.09-2.44-2.44 0-1.35 1.09-2.45 2.44-2.45 1.35 0 2.44 1.1 2.44 2.45z"/>
			<path id="&lt;Path&gt;" class="s4" d="m999.16 395.16c0 1.35-1.09 2.45-2.44 2.45-1.35 0-2.44-1.1-2.44-2.45 0-1.35 1.09-2.44 2.44-2.44 1.35 0 2.44 1.09 2.44 2.44z"/>
			<path id="&lt;Path&gt;" class="s1" d="m1114.35 458.49c0 1.36-1.09 2.45-2.44 2.45-1.35 0-2.44-1.09-2.44-2.45 0-1.35 1.09-2.44 2.44-2.44 1.35 0 2.44 1.09 2.44 2.44z"/>
			<path id="&lt;Path&gt;" class="s6" d="m715.84 1133.53c0 1.35-1.09 2.45-2.44 2.45-1.35 0-2.44-1.1-2.44-2.45 0-1.35 1.09-2.44 2.44-2.44 1.35 0 2.44 1.09 2.44 2.44z"/>
			<path id="&lt;Path&gt;" class="s1" d="m530.62 721.64c0 1.35-1.09 2.45-2.44 2.45-1.35 0-2.44-1.1-2.44-2.45 0-1.35 1.09-2.44 2.44-2.44 1.35 0 2.44 1.09 2.44 2.44z"/>
			<path id="&lt;Path&gt;" class="s1" d="m497.16 515.7c0 1.35-1.09 2.45-2.44 2.45-1.35 0-2.44-1.1-2.44-2.45 0-1.35 1.09-2.44 2.44-2.44 1.35 0 2.44 1.09 2.44 2.44z"/>
			<path id="&lt;Path&gt;" class="s2" d="m982.5 1048.13c0 1.35-1.09 2.44-2.44 2.44-1.35 0-2.45-1.09-2.45-2.44 0-1.35 1.1-2.45 2.45-2.45 1.35 0 2.44 1.1 2.44 2.45z"/>
			<path id="&lt;Path&gt;" class="s3" d="m48.83 965.11c0 1.35-1.1 2.45-2.45 2.45-1.34 0-2.44-1.1-2.44-2.45 0-1.35 1.1-2.44 2.44-2.44 1.35 0 2.45 1.09 2.45 2.44z"/>
			<path id="&lt;Path&gt;" class="s3" d="m65.58 762.3c0 2.02-1.64 3.66-3.66 3.66-2.03 0-3.67-1.64-3.67-3.66 0-2.03 1.64-3.67 3.67-3.67 2.02 0 3.66 1.64 3.66 3.67z"/>
			<path id="&lt;Path&gt;" class="s4" d="m177.6 380.73c0 2.02-1.64 3.67-3.67 3.67-2.02 0-3.66-1.65-3.66-3.67 0-2.03 1.64-3.67 3.66-3.67 2.03 0 3.67 1.64 3.67 3.67z"/>
			<path id="&lt;Path&gt;" class="s4" d="m521.1 185.06c0 2.03-1.64 3.67-3.67 3.67-2.02 0-3.66-1.64-3.66-3.67 0-2.02 1.64-3.67 3.66-3.67 2.03 0 3.67 1.65 3.67 3.67z"/>
			<path id="&lt;Path&gt;" class="s3" d="m1100.78 295.68c0 2.03-1.64 3.67-3.66 3.67-2.03 0-3.67-1.64-3.67-3.67 0-2.02 1.64-3.66 3.67-3.66 2.02 0 3.66 1.64 3.66 3.66z"/>
			<path id="&lt;Path&gt;" class="s2" d="m56.15 78.42c0 2.03-1.64 3.67-3.66 3.67-2.02 0-3.66-1.64-3.66-3.67 0-2.02 1.64-3.66 3.66-3.66 2.02 0 3.66 1.64 3.66 3.66z"/>
			<path id="&lt;Path&gt;" class="s1" d="m69.25 382.05c0 2.03-1.64 3.67-3.67 3.67-2.02 0-3.66-1.64-3.66-3.67 0-2.02 1.64-3.67 3.66-3.67 2.03 0 3.67 1.65 3.67 3.67z"/>
			<path id="&lt;Path&gt;" class="s5" d="m493.13 1069.6c0 2.02-1.64 3.66-3.67 3.66-2.02 0-3.66-1.64-3.66-3.66 0-2.03 1.64-3.67 3.66-3.67 2.03 0 3.67 1.64 3.67 3.67z"/>
			<path id="&lt;Path&gt;" class="s1" d="m256.87 713.16c0 2.02-1.64 3.67-3.66 3.67-2.02 0-3.66-1.65-3.66-3.67 0-2.03 1.64-3.67 3.66-3.67 2.02 0 3.66 1.64 3.66 3.67z"/>
			<path id="&lt;Path&gt;" class="s1" d="m539.54 384.91c0 2.03-1.64 3.67-3.66 3.67-2.03 0-3.67-1.64-3.67-3.67 0-2.02 1.64-3.67 3.67-3.67 2.02 0 3.66 1.65 3.66 3.67z"/>
			<path id="&lt;Path&gt;" class="s2" d="m825.29 141.19c0 2.02-1.64 3.67-3.66 3.67-2.03 0-3.67-1.65-3.67-3.67 0-2.03 1.64-3.67 3.67-3.67 2.02 0 3.66 1.64 3.66 3.67z"/>
			<path id="&lt;Path&gt;" class="s2" d="m1144 109.89c0 2.02-1.64 3.66-3.66 3.66-2.03 0-3.67-1.64-3.67-3.66 0-2.03 1.64-3.67 3.67-3.67 2.02 0 3.66 1.64 3.66 3.67z"/>
			<path id="&lt;Path&gt;" class="s1" d="m229.02 117.46c0 2.03-1.64 3.67-3.66 3.67-2.02 0-3.66-1.64-3.66-3.67 0-2.02 1.64-3.66 3.66-3.66 2.02 0 3.66 1.64 3.66 3.66z"/>
			<path id="&lt;Path&gt;" class="s4" d="m1054.97 370.24c0 2.03-1.64 3.67-3.66 3.67-2.03 0-3.67-1.64-3.67-3.67 0-2.03 1.64-3.67 3.67-3.67 2.02 0 3.66 1.64 3.66 3.67z"/>
			<path id="&lt;Path&gt;" class="s4" d="m889.4 553.03c0 2.03-1.64 3.67-3.66 3.67-2.03 0-3.67-1.64-3.67-3.67 0-2.02 1.64-3.67 3.67-3.67 2.02 0 3.66 1.65 3.66 3.67z"/>
			<path id="&lt;Path&gt;" class="s5" d="m450.47 52.68c0 2.03-1.64 3.67-3.66 3.67-2.03 0-3.67-1.64-3.67-3.67 0-2.02 1.64-3.67 3.67-3.67 2.02 0 3.66 1.65 3.66 3.67z"/>
			<path id="&lt;Path&gt;" class="s1" d="m119.32 982.37c0 2.03-1.64 3.67-3.66 3.67-2.02 0-3.66-1.64-3.66-3.67 0-2.02 1.64-3.67 3.66-3.67 2.02 0 3.66 1.65 3.66 3.67z"/>
			<path id="&lt;Path&gt;" class="s3" d="m724.51 481.38c0 2.02-1.64 3.66-3.67 3.66-2.02 0-3.66-1.64-3.66-3.66 0-2.03 1.64-3.67 3.66-3.67 2.03 0 3.67 1.64 3.67 3.67z"/>
			<path id="&lt;Path&gt;" class="s1" d="m432.06 306.66c0 2.03-1.64 3.67-3.67 3.67-2.02 0-3.66-1.64-3.66-3.67 0-2.02 1.64-3.66 3.66-3.66 2.03 0 3.67 1.64 3.67 3.66z"/>
			<path id="&lt;Path&gt;" class="s5" d="m926.72 332.34c0 2.02-1.64 3.67-3.66 3.67-2.02 0-3.66-1.65-3.66-3.67 0-2.03 1.64-3.67 3.66-3.67 2.02 0 3.66 1.64 3.66 3.67z"/>
			<path id="&lt;Path&gt;" class="s3" d="m940.1 77.61c0 2.03-1.64 3.67-3.66 3.67-2.03 0-3.67-1.64-3.67-3.67 0-2.02 1.64-3.67 3.67-3.67 2.02 0 3.66 1.65 3.66 3.67z"/>
			<path id="&lt;Path&gt;" class="s2" d="m598.11 111.85c0 2.02-1.64 3.66-3.66 3.66-2.03 0-3.67-1.64-3.67-3.66 0-2.03 1.64-3.67 3.67-3.67 2.02 0 3.66 1.64 3.66 3.67z"/>
			<path id="&lt;Path&gt;" class="s2" d="m385.59 141.19c0 2.02-1.64 3.67-3.67 3.67-2.02 0-3.66-1.65-3.66-3.67 0-2.03 1.64-3.67 3.66-3.67 2.03 0 3.67 1.64 3.67 3.67z"/>
			<path id="&lt;Path&gt;" class="s5" d="m154.55 458.84c0 2.7-2.19 4.89-4.89 4.89-2.69 0-4.88-2.19-4.88-4.89 0-2.7 2.19-4.89 4.88-4.89 2.7 0 4.89 2.19 4.89 4.89z"/>
			<path id="&lt;Path&gt;" class="s3" d="m85.97 856.42c0 4.05-3.28 7.34-7.32 7.34-4.05 0-7.33-3.29-7.33-7.34 0-4.05 3.28-7.33 7.33-7.33 4.04 0 7.32 3.28 7.32 7.33z"/>
			<path id="&lt;Path&gt;" class="s3" d="m94.54 659.06c0 4.73-3.82 8.56-8.54 8.56-4.72 0-8.55-3.83-8.55-8.56 0-4.72 3.83-8.55 8.55-8.55 4.72 0 8.54 3.83 8.54 8.55z"/>
			<path id="&lt;Path&gt;" class="s4" d="m195.06 1070.79c-16.31 3.73-21.61 9.03-25.34 25.36-0.55 2.42-4.02 2.42-4.57 0-3.73-16.33-9.03-21.63-25.34-25.36-2.42-0.56-2.42-4.03 0-4.58 16.31-3.73 21.61-9.04 25.34-25.36 0.55-2.43 4.02-2.43 4.57 0 3.73 16.32 9.03 21.63 25.34 25.36 2.42 0.55 2.42 4.02 0 4.58z"/>
			<path id="&lt;Path&gt;" class="s4" d="m476.48 803.47c0 6.75-5.46 12.22-12.21 12.22-6.74 0-12.21-5.47-12.21-12.22 0-6.76 5.47-12.23 12.21-12.23 6.75 0 12.21 5.47 12.21 12.23z"/>
			<path id="&lt;Path&gt;" class="s1" d="m801.33 506.41c0 3.37-2.74 6.11-6.11 6.11-3.37 0-6.11-2.74-6.11-6.11 0-3.38 2.74-6.12 6.11-6.12 3.37 0 6.11 2.74 6.11 6.12z"/>
			<path id="&lt;Path&gt;" class="s3" d="m889.25 263.14c0 5.4-4.37 9.78-9.77 9.78-5.39 0-9.77-4.38-9.77-9.78 0-5.41 4.38-9.78 9.77-9.78 5.4 0 9.77 4.37 9.77 9.78z"/>
			<path id="&lt;Path&gt;" class="s4" d="m511.34 295.57c0 5.41-4.37 9.78-9.77 9.78-5.39 0-9.77-4.37-9.77-9.78 0-5.4 4.38-9.78 9.77-9.78 5.4 0 9.77 4.38 9.77 9.78z"/>
			<path id="&lt;Path&gt;" class="s5" d="m688.92 43.9c0 8.1-6.56 14.67-14.65 14.67-8.1 0-14.66-6.57-14.66-14.67 0-8.1 6.56-14.67 14.66-14.67 8.09 0 14.65 6.57 14.65 14.67z"/>
			<path id="&lt;Path&gt;" class="s4" d="m863.17 49.82c0 5.4-4.37 9.78-9.77 9.78-5.39 0-9.77-4.38-9.77-9.78 0-5.4 4.38-9.78 9.77-9.78 5.4 0 9.77 4.38 9.77 9.78z"/>
			<path id="&lt;Path&gt;" class="s1" d="m944.79 168.34c0 4.05-3.28 7.33-7.33 7.33-4.04 0-7.32-3.28-7.32-7.33 0-4.05 3.28-7.34 7.32-7.34 4.05 0 7.33 3.29 7.33 7.34z"/>
			<path id="&lt;Path&gt;" class="s2" d="m331.44 469.94c0 6.75-5.47 12.22-12.21 12.22-6.75 0-12.22-5.47-12.22-12.22 0-6.76 5.47-12.23 12.22-12.23 6.74 0 12.21 5.47 12.21 12.23z"/>
			<path id="&lt;Path&gt;" class="s1" d="m938.1 1001.51c0 8.1-6.56 14.66-14.65 14.66-8.1 0-14.66-6.56-14.66-14.66 0-8.11 6.56-14.67 14.66-14.67 8.09 0 14.65 6.56 14.65 14.67z"/>
			<path id="&lt;Path&gt;" class="s2" d="m823.27 1110.64c0 4.05-3.28 7.33-7.33 7.33-4.04 0-7.32-3.28-7.32-7.33 0-4.05 3.28-7.34 7.32-7.34 4.05 0 7.33 3.29 7.33 7.34z"/>
			<path id="&lt;Path&gt;" class="s2" d="m158.41 45.82c0 9.46-7.66 17.12-17.1 17.12-9.45 0-17.1-7.66-17.1-17.12 0-9.45 7.65-17.11 17.1-17.11 9.44 0 17.1 7.66 17.1 17.11z"/>
			<path id="&lt;Path&gt;" class="s4" d="m194.57 306.16c0 5.4-4.37 9.78-9.77 9.78-5.4 0-9.77-4.38-9.77-9.78 0-5.4 4.37-9.78 9.77-9.78 5.4 0 9.77 4.38 9.77 9.78z"/>
			<path id="&lt;Path&gt;" class="s4" d="m127.17 135.63c0 2.7-2.18 4.89-4.88 4.89-2.7 0-4.89-2.19-4.89-4.89 0-2.7 2.19-4.89 4.89-4.89 2.7 0 4.88 2.19 4.88 4.89z"/>
			<path id="&lt;Path&gt;" class="s6" d="m618.78 480.08c-6.25 1.93-9.11 4.8-11.04 11.05-0.68 2.21-3.8 2.21-4.49 0-1.93-6.25-4.79-9.12-11.04-11.05-2.2-0.68-2.2-3.81 0-4.49 6.25-1.93 9.11-4.8 11.04-11.05 0.69-2.21 3.81-2.21 4.49 0 1.93 6.25 4.79 9.12 11.04 11.05 2.2 0.68 2.2 3.81 0 4.49z"/>
			<path id="&lt;Path&gt;" class="s6" d="m153.14 600.72c-8.56 2.38-12.08 5.9-14.46 14.47-0.63 2.29-3.88 2.29-4.52 0-2.37-8.57-5.89-12.09-14.45-14.47-2.29-0.63-2.29-3.89 0-4.52 8.56-2.38 12.08-5.9 14.45-14.47 0.64-2.29 3.89-2.29 4.52 0 2.38 8.57 5.9 12.09 14.46 14.47 2.28 0.63 2.28 3.89 0 4.52z"/>
			<path id="&lt;Path&gt;" class="s5" d="m737.44 976.87c-8.56 2.38-12.08 5.9-14.45 14.47-0.64 2.29-3.89 2.29-4.52 0-2.38-8.57-5.9-12.09-14.46-14.47-2.28-0.63-2.28-3.89 0-4.52 8.56-2.38 12.08-5.9 14.46-14.47 0.63-2.29 3.88-2.29 4.52 0 2.37 8.57 5.89 12.09 14.45 14.47 2.29 0.63 2.29 3.89 0 4.52z"/>
			<path id="&lt;Path&gt;" class="s3" d="m1026.56 720.86c0 6.75-5.47 12.22-12.22 12.22-6.74 0-12.21-5.47-12.21-12.22 0-6.76 5.47-12.23 12.21-12.23 6.75 0 12.22 5.47 12.22 12.23z"/>
			<path id="&lt;Path&gt;" class="s1" d="m336.79 658.79c0 2.7-2.19 4.89-4.89 4.89-2.69 0-4.88-2.19-4.88-4.89 0-2.71 2.19-4.89 4.88-4.89 2.7 0 4.89 2.18 4.89 4.89z"/>
			<path id="&lt;Path&gt;" class="s3" d="m637.91 1110.64c0 8.1-6.56 14.67-14.65 14.67-8.1 0-14.66-6.57-14.66-14.67 0-8.1 6.56-14.67 14.66-14.67 8.09 0 14.65 6.57 14.65 14.67z"/>
			<path id="&lt;Path&gt;" class="s5" d="m1062.92 844.63c0 6.76-5.47 12.23-12.21 12.23-6.75 0-12.22-5.47-12.22-12.23 0-6.75 5.47-12.22 12.22-12.22 6.74 0 12.21 5.47 12.21 12.22z"/>
			<path id="&lt;Path&gt;" class="s4" d="m752.67 264c0 5.4-4.38 9.78-9.77 9.78-5.4 0-9.78-4.38-9.78-9.78 0-5.41 4.38-9.79 9.78-9.79 5.39 0 9.77 4.38 9.77 9.79z"/>
			<path id="&lt;Path&gt;" class="s5" d="m315.07 192.06c0 5.4-4.37 9.78-9.77 9.78-5.4 0-9.77-4.38-9.77-9.78 0-5.4 4.37-9.78 9.77-9.78 5.4 0 9.77 4.38 9.77 9.78z"/>
			<path id="&lt;Path&gt;" class="s4" d="m351.71 75.56c0 5.41-4.38 9.79-9.77 9.79-5.4 0-9.78-4.38-9.78-9.79 0-5.4 4.38-9.78 9.78-9.78 5.39 0 9.77 4.38 9.77 9.78z"/>
			<path id="&lt;Path&gt;" class="s3" d="m1120.48 155.68c-8.56 2.37-12.08 5.9-14.45 14.47-0.63 2.28-3.89 2.28-4.52 0-2.37-8.57-5.9-12.1-14.46-14.47-2.28-0.64-2.28-3.89 0-4.53 8.56-2.37 12.09-5.9 14.46-14.47 0.63-2.28 3.89-2.28 4.52 0 2.37 8.57 5.89 12.1 14.45 14.47 2.29 0.64 2.29 3.89 0 4.53z"/>
			<path id="&lt;Path&gt;" class="s4" d="m735.19 208.36c0 5.4-4.38 9.78-9.77 9.78-5.4 0-9.77-4.38-9.77-9.78 0-5.4 4.37-9.78 9.77-9.78 5.39 0 9.77 4.38 9.77 9.78z"/>
			<path id="&lt;Path&gt;" class="s1" d="m1091.07 536.37c-13.59 3.27-18.33 8.01-21.6 21.61-0.58 2.43-3.99 2.43-4.57 0-3.27-13.6-8.01-18.34-21.6-21.61-2.42-0.59-2.42-4 0-4.59 13.59-3.27 18.33-8.01 21.6-21.61 0.58-2.42 3.99-2.42 4.57 0 3.27 13.6 8.01 18.34 21.6 21.61 2.42 0.59 2.42 4 0 4.59z"/>
			<path id="&lt;Path&gt;" class="s2" d="m776.49 744.37c0 6.75-5.47 12.23-12.21 12.23-6.75 0-12.22-5.48-12.22-12.23 0-6.75 5.47-12.23 12.22-12.23 6.74 0 12.21 5.48 12.21 12.23z"/>
			<path id="&lt;Path&gt;" class="s2" d="m510.88 139.75c-18.32 3.59-22.89 8.16-26.47 26.5-0.27 1.38-2.26 1.38-2.53 0-3.58-18.34-8.15-22.91-26.47-26.5-1.38-0.27-1.38-2.25 0-2.52 18.32-3.59 22.89-8.16 26.47-26.5 0.27-1.38 2.26-1.38 2.53 0 3.58 18.34 8.15 22.91 26.47 26.5 1.38 0.27 1.38 2.25 0 2.52z"/>
			<path id="&lt;Path&gt;" class="s4" d="m219.19 509.7c0 6.76-5.47 12.23-12.21 12.23-6.75 0-12.22-5.47-12.22-12.23 0-6.75 5.47-12.22 12.22-12.22 6.74 0 12.21 5.47 12.21 12.22z"/>
			<path id="&lt;Path&gt;" class="s3" d="m326.63 792.59c-17.66 3.95-23.23 9.54-27.19 27.21-0.55 2.46-4.04 2.46-4.59 0-3.95-17.67-9.53-23.26-27.18-27.21-2.46-0.56-2.46-4.05 0-4.6 17.65-3.96 23.23-9.54 27.18-27.21 0.55-2.47 4.04-2.47 4.59 0 3.96 17.67 9.53 23.25 27.19 27.21 2.46 0.55 2.46 4.04 0 4.6z"/>
			<path id="&lt;Path&gt;" class="s1" d="m1004.11 308.56c0 5.4-4.37 9.78-9.77 9.78-5.39 0-9.77-4.38-9.77-9.78 0-5.4 4.38-9.78 9.77-9.78 5.4 0 9.77 4.38 9.77 9.78z"/>
			<path id="&lt;Path&gt;" class="s6" d="m967.03 759.04c0 4.05-3.28 7.34-7.33 7.34-4.05 0-7.33-3.29-7.33-7.34 0-4.05 3.28-7.33 7.33-7.33 4.05 0 7.33 3.28 7.33 7.33z"/>
			<path id="&lt;Path&gt;" class="s4" d="m595.73 935.1c0 6.76-5.47 12.23-12.22 12.23-6.74 0-12.21-5.47-12.21-12.23 0-6.75 5.47-12.22 12.21-12.22 6.75 0 12.22 5.47 12.22 12.22z"/>
			<path id="&lt;Path&gt;" class="s4" d="m615.27 710.14c0 4.05-3.28 7.33-7.33 7.33-4.05 0-7.33-3.28-7.33-7.33 0-4.05 3.28-7.34 7.33-7.34 4.05 0 7.33 3.29 7.33 7.34z"/>
			<path id="&lt;Path&gt;" class="s5" d="m226.81 818.54c0 4.05-3.28 7.33-7.33 7.33-4.05 0-7.33-3.28-7.33-7.33 0-4.05 3.28-7.34 7.33-7.34 4.05 0 7.33 3.29 7.33 7.34z"/>
			<path id="&lt;Path&gt;" class="s5" d="m1048.63 1082.04c0 4.05-3.28 7.33-7.33 7.33-4.04 0-7.32-3.28-7.32-7.33 0-4.05 3.28-7.34 7.32-7.34 4.05 0 7.33 3.29 7.33 7.34z"/>
			<path id="&lt;Path&gt;" class="s2" d="m425.54 1070.6c-15.39 2.49-17.41 4.52-19.9 19.93-2.5-15.41-4.52-17.44-19.91-19.93 15.39-2.5 17.41-4.53 19.91-19.93 2.49 15.4 4.51 17.43 19.9 19.93z"/>
			<path id="&lt;Path&gt;" class="s4" d="m167.33 681.94c0 5.49-4.44 9.94-9.92 9.94-5.48 0-9.93-4.45-9.93-9.94 0-5.48 4.45-9.93 9.93-9.93 5.48 0 9.92 4.45 9.92 9.93z"/>
			<path id="&lt;Path&gt;" class="s3" d="m278.47 937.55c0 5.49-4.45 9.93-9.93 9.93-5.48 0-9.92-4.44-9.92-9.93 0-5.49 4.44-9.93 9.92-9.93 5.48 0 9.93 4.44 9.93 9.93z"/>
			<path id="&lt;Path&gt;" class="s3" d="m400.79 890.44c0 5.49-4.44 9.94-9.92 9.94-5.48 0-9.93-4.45-9.93-9.94 0-5.48 4.45-9.93 9.93-9.93 5.48 0 9.92 4.45 9.92 9.93z"/>
			<path id="&lt;Path&gt;" class="s4" d="m70.18 1129.66c0 5.48-4.44 9.93-9.92 9.93-5.48 0-9.93-4.45-9.93-9.93 0-5.49 4.45-9.94 9.93-9.94 5.48 0 9.92 4.45 9.92 9.94z"/>
			<path id="&lt;Path&gt;" class="s4" d="m1128.25 1035.36c0 5.49-4.44 9.94-9.92 9.94-5.48 0-9.92-4.45-9.92-9.94 0-5.48 4.44-9.93 9.92-9.93 5.48 0 9.92 4.45 9.92 9.93z"/>
			<path id="&lt;Path&gt;" class="s1" d="m723.49 619.27c0 8.23-6.66 14.9-14.88 14.9-8.22 0-14.89-6.67-14.89-14.9 0-8.23 6.67-14.9 14.89-14.9 8.22 0 14.88 6.67 14.88 14.9z"/>
			<path id="&lt;Path&gt;" class="s3" d="m259.74 293.18c11.03-2.82 15.17-6.97 17.99-18.01 0.6-2.35 3.95-2.35 4.55 0 2.82 11.04 6.96 15.19 17.99 18.01 2.35 0.6 2.35 3.95 0 4.55-11.03 2.83-15.17 6.97-17.99 18.01-0.6 2.36-3.95 2.36-4.55 0-2.82-11.04-6.96-15.18-17.99-18.01-2.35-0.6-2.35-3.95 0-4.55z"/>
		</g>
		<g id="&lt;Group&gt;">
			<path id="&lt;Path&gt;" class="s0" d="m-1830 1144h-1144v-1144h1144z"/>
			<path id="&lt;Path&gt;" class="s6" d="m-2160.86 517.17c0 4.06-3.29 7.35-7.35 7.35-4.06 0-7.36-3.29-7.36-7.35 0-4.06 3.3-7.35 7.36-7.35 4.06 0 7.35 3.29 7.35 7.35z"/>
			<path id="&lt;Path&gt;" class="s3" d="m-1967.07 208.29c0 7.1-5.76 12.86-12.86 12.86-7.11 0-12.87-5.76-12.87-12.86 0-7.11 5.76-12.87 12.87-12.87 7.1 0 12.86 5.76 12.86 12.87z"/>
			<path id="&lt;Path&gt;" class="s3" d="m-2023.58 566.74c0 4.06-3.29 7.35-7.35 7.35-4.06 0-7.36-3.29-7.36-7.35 0-4.06 3.3-7.35 7.36-7.35 4.06 0 7.35 3.29 7.35 7.35z"/>
			<path id="&lt;Path&gt;" class="s3" d="m-2180.2 978.58c0 4.06-3.29 7.35-7.35 7.35-4.07 0-7.36-3.29-7.36-7.35 0-4.06 3.29-7.35 7.36-7.35 4.06 0 7.35 3.29 7.35 7.35z"/>
			<path id="&lt;Path&gt;" class="s4" d="m-2574 379.89c0 3.78-3.06 6.84-6.84 6.84-3.78 0-6.84-3.06-6.84-6.84 0-3.78 3.06-6.84 6.84-6.84 3.78 0 6.84 3.06 6.84 6.84z"/>
			<path id="&lt;Path&gt;" class="s1" d="m-1909.59 754.28c0 1.73-1.4 3.13-3.13 3.13-1.73 0-3.13-1.4-3.13-3.13 0-1.73 1.4-3.13 3.13-3.13 1.73 0 3.13 1.4 3.13 3.13z"/>
			<path id="&lt;Path&gt;" class="s3" d="m-2492.35 597.25c0 1.73-1.4 3.13-3.12 3.13-1.73 0-3.13-1.4-3.13-3.13 0-1.73 1.4-3.13 3.13-3.13 1.72 0 3.12 1.4 3.12 3.13z"/>
			<path id="&lt;Path&gt;" class="s5" d="m-2936.07 612.5c0 1.73-1.4 3.13-3.12 3.13-1.73 0-3.13-1.4-3.13-3.13 0-1.73 1.4-3.13 3.13-3.13 1.72 0 3.12 1.4 3.12 3.13z"/>
			<path id="&lt;Path&gt;" class="s5" d="m-1882.9 548.36c0 1.73-1.4 3.13-3.13 3.13-1.72 0-3.12-1.4-3.12-3.13 0-1.73 1.4-3.13 3.12-3.13 1.73 0 3.13 1.4 3.13 3.13z"/>
			<path id="&lt;Path&gt;" class="s3" d="m-2679.89 24.56c0 1.73-1.4 3.13-3.12 3.13-1.73 0-3.13-1.4-3.13-3.13 0-1.73 1.4-3.13 3.13-3.13 1.72 0 3.12 1.4 3.12 3.13z"/>
			<path id="&lt;Path&gt;" class="s4" d="m-2095.76 700.21c0 1.73-1.4 3.13-3.13 3.13-1.73 0-3.13-1.4-3.13-3.13 0-1.73 1.4-3.13 3.13-3.13 1.73 0 3.13 1.4 3.13 3.13z"/>
			<path id="&lt;Path&gt;" class="s5" d="m-2426.92 426.25c0 2.43-1.98 4.41-4.41 4.41-2.44 0-4.41-1.98-4.41-4.41 0-2.44 1.97-4.42 4.41-4.42 2.43 0 4.41 1.98 4.41 4.42z"/>
			<path id="&lt;Path&gt;" class="s4" d="m-2704.7 543.86c0 2.44-1.97 4.41-4.41 4.41-2.44 0-4.41-1.97-4.41-4.41 0-2.44 1.97-4.41 4.41-4.41 2.44 0 4.41 1.97 4.41 4.41z"/>
			<path id="&lt;Path&gt;" class="s5" d="m-2438.36 799.95c0 2.44-1.98 4.41-4.41 4.41-2.44 0-4.41-1.97-4.41-4.41 0-2.43 1.97-4.41 4.41-4.41 2.43 0 4.41 1.98 4.41 4.41z"/>
			<path id="&lt;Path&gt;" class="s4" d="m-2312.52 1115.26c0 2.44-1.98 4.41-4.41 4.41-2.44 0-4.41-1.97-4.41-4.41 0-2.43 1.97-4.41 4.41-4.41 2.43 0 4.41 1.98 4.41 4.41z"/>
			<path id="&lt;Path&gt;" class="s5" d="m-1927.38 1088.57c0 2.44-1.97 4.41-4.41 4.41-2.43 0-4.41-1.97-4.41-4.41 0-2.44 1.98-4.41 4.41-4.41 2.44 0 4.41 1.97 4.41 4.41z"/>
			<path id="&lt;Path&gt;" class="s4" d="m-2702.08 135.83c0 1.63-1.32 2.95-2.94 2.95-1.63 0-2.94-1.32-2.94-2.95 0-1.62 1.31-2.94 2.94-2.94 1.62 0 2.94 1.32 2.94 2.94z"/>
			<path id="&lt;Path&gt;" class="s5" d="m-1954.67 883.25c0 1.62-1.31 2.94-2.94 2.94-1.62 0-2.94-1.32-2.94-2.94 0-1.63 1.32-2.94 2.94-2.94 1.63 0 2.94 1.31 2.94 2.94z"/>
			<path id="&lt;Path&gt;" class="s4" d="m-1894.53 127.34c0 1.62-1.31 2.94-2.94 2.94-1.62 0-2.94-1.32-2.94-2.94 0-1.63 1.32-2.95 2.94-2.95 1.63 0 2.94 1.32 2.94 2.95z"/>
			<path id="&lt;Path&gt;" class="s3" d="m-1844.08 883.25c0 1.62-1.32 2.94-2.94 2.94-1.63 0-2.94-1.32-2.94-2.94 0-1.63 1.31-2.94 2.94-2.94 1.62 0 2.94 1.31 2.94 2.94z"/>
			<path id="&lt;Path&gt;" class="s2" d="m-2481.78 171.03c0 1.62-1.32 2.94-2.94 2.94-1.62 0-2.94-1.32-2.94-2.94 0-1.63 1.32-2.94 2.94-2.94 1.62 0 2.94 1.31 2.94 2.94z"/>
			<path id="&lt;Path&gt;" class="s1" d="m-2015.68 1005.27c0 1.63-1.32 2.95-2.94 2.95-1.63 0-2.94-1.32-2.94-2.95 0-1.62 1.31-2.94 2.94-2.94 1.62 0 2.94 1.32 2.94 2.94z"/>
			<path id="&lt;Path&gt;" class="s4" d="m-1975.48 402.77c0 1.62-1.32 2.94-2.94 2.94-1.62 0-2.94-1.32-2.94-2.94 0-1.63 1.32-2.94 2.94-2.94 1.62 0 2.94 1.31 2.94 2.94z"/>
			<path id="&lt;Path&gt;" class="s4" d="m-2846.99 196.85c0 1.62-1.31 2.94-2.94 2.94-1.62 0-2.94-1.32-2.94-2.94 0-1.63 1.32-2.94 2.94-2.94 1.63 0 2.94 1.31 2.94 2.94z"/>
			<path id="&lt;Path&gt;" class="s1" d="m-1867.83 357.88c0 1.62-1.32 2.94-2.94 2.94-1.63 0-2.94-1.32-2.94-2.94 0-1.62 1.31-2.94 2.94-2.94 1.62 0 2.94 1.32 2.94 2.94z"/>
			<path id="&lt;Path&gt;" class="s6" d="m-2358.88 48.13c0 1.62-1.32 2.94-2.94 2.94-1.63 0-2.94-1.32-2.94-2.94 0-1.63 1.31-2.94 2.94-2.94 1.62 0 2.94 1.31 2.94 2.94z"/>
			<path id="&lt;Path&gt;" class="s3" d="m-2536.04 780.29c0 1.62-1.32 2.94-2.94 2.94-1.62 0-2.94-1.32-2.94-2.94 0-1.63 1.32-2.94 2.94-2.94 1.62 0 2.94 1.31 2.94 2.94z"/>
			<path id="&lt;Path&gt;" class="s4" d="m-2918.24 776.47c0 2.44-1.98 4.42-4.42 4.42-2.43 0-4.41-1.98-4.41-4.42 0-2.43 1.98-4.41 4.41-4.41 2.44 0 4.42 1.98 4.42 4.41z"/>
			<path id="&lt;Path&gt;" class="s3" d="m-2088.13 29.06c0 2.44-1.98 4.41-4.41 4.41-2.44 0-4.42-1.97-4.42-4.41 0-2.44 1.98-4.41 4.42-4.41 2.43 0 4.41 1.97 4.41 4.41z"/>
			<path id="&lt;Path&gt;" class="s2" d="m-2156.18 234.38c0 2.44-1.97 4.41-4.41 4.41-2.43 0-4.41-1.97-4.41-4.41 0-2.43 1.98-4.41 4.41-4.41 2.44 0 4.41 1.98 4.41 4.41z"/>
			<path id="&lt;Path&gt;" class="s1" d="m-1896.27 44.31c0 2.44-1.98 4.42-4.41 4.42-2.44 0-4.41-1.98-4.41-4.42 0-2.43 1.97-4.41 4.41-4.41 2.43 0 4.41 1.98 4.41 4.41z"/>
			<path id="&lt;Path&gt;" class="s5" d="m-2858.43 505.73c0 2.43-1.97 4.41-4.41 4.41-2.43 0-4.41-1.98-4.41-4.41 0-2.44 1.98-4.41 4.41-4.41 2.44 0 4.41 1.97 4.41 4.41z"/>
			<path id="&lt;Path&gt;" class="s1" d="m-2942.32 1119.67c0 2.44-1.98 4.42-4.41 4.42-2.44 0-4.41-1.98-4.41-4.42 0-2.43 1.97-4.41 4.41-4.41 2.43 0 4.41 1.98 4.41 4.41z"/>
			<path id="&lt;Path&gt;" class="s1" d="m-2118.04 836.89c0 2.44-1.98 4.41-4.41 4.41-2.44 0-4.41-1.97-4.41-4.41 0-2.44 1.97-4.41 4.41-4.41 2.43 0 4.41 1.97 4.41 4.41z"/>
			<path id="&lt;Path&gt;" class="s2" d="m-2175.84 48.13c0 2.43-1.98 4.41-4.41 4.41-2.44 0-4.41-1.98-4.41-4.41 0-2.44 1.97-4.41 4.41-4.41 2.43 0 4.41 1.97 4.41 4.41z"/>
			<path id="&lt;Path&gt;" class="s2" d="m-2907.4 24.65c0 2.44-1.98 4.41-4.41 4.41-2.44 0-4.41-1.97-4.41-4.41 0-2.44 1.97-4.41 4.41-4.41 2.43 0 4.41 1.97 4.41 4.41z"/>
			<path id="&lt;Path&gt;" class="s1" d="m-2350.06 341.75c0 2.44-1.97 4.42-4.41 4.42-2.44 0-4.41-1.98-4.41-4.42 0-2.43 1.97-4.41 4.41-4.41 2.44 0 4.41 1.98 4.41 4.41z"/>
			<path id="&lt;Path&gt;" class="s5" d="m-2854.02 1120.27c0 2.44-1.97 4.41-4.41 4.41-2.43 0-4.41-1.97-4.41-4.41 0-2.43 1.98-4.41 4.41-4.41 2.44 0 4.41 1.98 4.41 4.41z"/>
			<path id="&lt;Path&gt;" class="s1" d="m-2781.56 905.53c0 2.44-1.98 4.41-4.41 4.41-2.44 0-4.42-1.97-4.42-4.41 0-2.44 1.98-4.41 4.42-4.41 2.43 0 4.41 1.97 4.41 4.41z"/>
			<path id="&lt;Path&gt;" class="s3" d="m-2536.91 44.31c0 2.44-1.98 4.42-4.41 4.42-2.44 0-4.41-1.98-4.41-4.42 0-2.43 1.97-4.41 4.41-4.41 2.43 0 4.41 1.98 4.41 4.41z"/>
			<path id="&lt;Path&gt;" class="s5" d="m-2206.35 1058.66c0 2.44-1.97 4.41-4.41 4.41-2.43 0-4.41-1.97-4.41-4.41 0-2.44 1.98-4.41 4.41-4.41 2.44 0 4.41 1.97 4.41 4.41z"/>
			<path id="&lt;Path&gt;" class="s3" d="m-1912.72 986.21c0 2.43-1.98 4.41-4.41 4.41-2.44 0-4.41-1.98-4.41-4.41 0-2.44 1.97-4.41 4.41-4.41 2.43 0 4.41 1.97 4.41 4.41z"/>
			<path id="&lt;Path&gt;" class="s2" d="m-2747.24 303.02c0 2.44-1.98 4.41-4.41 4.41-2.44 0-4.42-1.97-4.42-4.41 0-2.43 1.98-4.41 4.42-4.41 2.43 0 4.41 1.98 4.41 4.41z"/>
			<path id="&lt;Path&gt;" class="s2" d="m-2072.28 163.13c0 2.43-1.98 4.41-4.41 4.41-2.44 0-4.41-1.98-4.41-4.41 0-2.44 1.97-4.42 4.41-4.42 2.43 0 4.41 1.98 4.41 4.42z"/>
			<path id="&lt;Path&gt;" class="s5" d="m-2572.1 974.77c0 3.25-2.64 5.88-5.89 5.88-3.24 0-5.88-2.63-5.88-5.88 0-3.25 2.64-5.88 5.88-5.88 3.25 0 5.89 2.63 5.89 5.88z"/>
			<path id="&lt;Path&gt;" class="s3" d="m-2094.56 432.08c0 4.87-3.95 8.82-8.83 8.82-4.87 0-8.82-3.95-8.82-8.82 0-4.87 3.95-8.82 8.82-8.82 4.88 0 8.83 3.95 8.83 8.82z"/>
			<path id="&lt;Path&gt;" class="s3" d="m-2549.01 1070.1c0 3.04-2.46 5.5-5.5 5.5-3.04 0-5.5-2.46-5.5-5.5 0-3.04 2.46-5.5 5.5-5.5 3.04 0 5.5 2.46 5.5 5.5z"/>
			<path id="&lt;Path&gt;" class="s4" d="m-2380.23 1036.03c-19.64 4.49-26.02 10.87-30.51 30.51-0.66 2.92-4.84 2.92-5.51 0-4.48-19.64-10.87-26.02-30.5-30.51-2.92-0.66-2.92-4.84 0-5.51 19.63-4.48 26.02-10.87 30.5-30.5 0.67-2.92 4.85-2.92 5.51 0 4.49 19.63 10.87 26.02 30.51 30.5 2.92 0.67 2.92 4.85 0 5.51z"/>
			<path id="&lt;Path&gt;" class="s4" d="m-2824.66 285.1c0 8.12-6.58 14.71-14.7 14.71-8.12 0-14.71-6.59-14.71-14.71 0-8.12 6.59-14.7 14.71-14.7 8.12 0 14.7 6.58 14.7 14.7z"/>
			<path id="&lt;Path&gt;" class="s4" d="m-2819.97 685.28c0 6.5-5.27 11.76-11.76 11.76-6.5 0-11.77-5.26-11.77-11.76 0-6.5 5.27-11.77 11.77-11.77 6.49 0 11.76 5.27 11.76 11.77z"/>
			<path id="&lt;Path&gt;" class="s5" d="m-2167.02 673.75c0 9.74-7.9 17.64-17.64 17.64-9.75 0-17.65-7.9-17.65-17.64 0-9.75 7.9-17.65 17.65-17.65 9.74 0 17.64 7.9 17.64 17.65z"/>
			<path id="&lt;Path&gt;" class="s1" d="m-2808.85 59.57c0 4.87-3.95 8.82-8.83 8.82-4.87 0-8.82-3.95-8.82-8.82 0-4.87 3.95-8.82 8.82-8.82 4.88 0 8.83 3.95 8.83 8.82z"/>
			<path id="&lt;Path&gt;" class="s2" d="m-2325.11 872.36c0 8.12-6.58 14.7-14.7 14.7-8.12 0-14.71-6.58-14.71-14.7 0-8.12 6.59-14.71 14.71-14.71 8.12 0 14.7 6.59 14.7 14.71z"/>
			<path id="&lt;Path&gt;" class="s4" d="m-2148.82 341.75c0 3.25-2.64 5.89-5.88 5.89-3.25 0-5.89-2.64-5.89-5.89 0-3.24 2.64-5.88 5.89-5.88 3.24 0 5.88 2.64 5.88 5.88z"/>
			<path id="&lt;Path&gt;" class="s6" d="m-2730.69 1029.11c-4.18 1.29-6.1 3.21-7.39 7.39-0.45 1.47-2.54 1.47-3 0-1.29-4.18-3.2-6.1-7.38-7.39-1.48-0.45-1.48-2.54 0-3 4.18-1.29 6.09-3.2 7.38-7.38 0.46-1.48 2.55-1.48 3 0 1.29 4.18 3.21 6.09 7.39 7.38 1.47 0.46 1.47 2.55 0 3z"/>
			<path id="&lt;Path&gt;" class="s4" d="m-2585.53 621.79c-10.31 2.86-14.55 7.1-17.4 17.4-0.77 2.75-4.68 2.75-5.45 0-2.85-10.3-7.09-14.54-17.4-17.4-2.75-0.76-2.75-4.68 0-5.44 10.31-2.86 14.55-7.1 17.4-17.41 0.77-2.75 4.68-2.75 5.45 0 2.85 10.31 7.09 14.55 17.4 17.41 2.75 0.76 2.75 4.68 0 5.44z"/>
			<path id="&lt;Path&gt;" class="s1" d="m-2381.76 627.75c0 3.25-2.63 5.89-5.88 5.89-3.25 0-5.89-2.64-5.89-5.89 0-3.24 2.64-5.88 5.89-5.88 3.25 0 5.88 2.64 5.88 5.88z"/>
			<path id="&lt;Path&gt;" class="s3" d="m-1975.15 887.06c0 9.75-7.9 17.65-17.65 17.65-9.75 0-17.65-7.9-17.65-17.65 0-9.75 7.9-17.65 17.65-17.65 9.75 0 17.65 7.9 17.65 17.65z"/>
			<path id="&lt;Path&gt;" class="s3" d="m-2283.65 158.05c-10.31 2.86-14.55 7.1-17.41 17.41-0.76 2.75-4.68 2.75-5.44 0-2.86-10.31-7.1-14.55-17.4-17.41-2.75-0.76-2.75-4.68 0-5.44 10.3-2.86 14.54-7.1 17.4-17.41 0.76-2.75 4.68-2.75 5.44 0 2.86 10.31 7.1 14.55 17.41 17.41 2.75 0.76 2.75 4.68 0 5.44z"/>
			<path id="&lt;Path&gt;" class="s1" d="m-1983.36 95.18c-16.36 3.93-22.07 9.63-26 26-0.7 2.91-4.81 2.91-5.51 0-3.94-16.37-9.64-22.07-26-26-2.92-0.7-2.92-4.81 0-5.51 16.36-3.94 22.06-9.64 26-26.01 0.7-2.91 4.81-2.91 5.51 0 3.93 16.37 9.64 22.07 26 26.01 2.91 0.7 2.91 4.81 0 5.51z"/>
			<path id="&lt;Path&gt;" class="s2" d="m-2596.42 854.86c-20.75 4.06-25.93 9.24-29.99 29.99-0.31 1.57-2.56 1.57-2.86 0-4.07-20.75-9.24-25.93-30-29.99-1.57-0.31-1.57-2.56 0-2.86 20.76-4.07 25.93-9.24 30-30 0.3-1.57 2.55-1.57 2.86 0 4.06 20.76 9.24 25.93 29.99 30 1.57 0.3 1.57 2.55 0 2.86z"/>
			<path id="&lt;Path&gt;" class="s3" d="m-2682.11 389.49c-21.26 4.77-27.97 11.48-32.73 32.74-0.67 2.96-4.86 2.96-5.53 0-4.76-21.26-11.47-27.97-32.73-32.74-2.96-0.66-2.96-4.86 0-5.52 21.26-4.77 27.97-11.48 32.73-32.74 0.67-2.96 4.86-2.96 5.53 0 4.76 21.26 11.47 27.97 32.73 32.74 2.97 0.66 2.97 4.86 0 5.52z"/>
			<path id="&lt;Path&gt;" class="s6" d="m-2918.24 127.01c0 4.87-3.95 8.82-8.83 8.82-4.87 0-8.82-3.95-8.82-8.82 0-4.87 3.95-8.82 8.82-8.82 4.88 0 8.83 3.95 8.83 8.82z"/>
			<path id="&lt;Path&gt;" class="s5" d="m-2730.19 784.1c0 4.87-3.95 8.83-8.83 8.83-4.87 0-8.82-3.96-8.82-8.83 0-4.87 3.95-8.82 8.82-8.82 4.88 0 8.83 3.95 8.83 8.82z"/>
			<path id="&lt;Path&gt;" class="s2" d="m-2882.84 1077.66c-8.79 2.16-11.94 5.32-14.1 14.11-0.41 1.68-2.78 1.68-3.2 0-2.16-8.79-5.31-11.95-14.1-14.11-1.68-0.41-1.68-2.78 0-3.19 8.79-2.16 11.94-5.32 14.1-14.11 0.42-1.68 2.79-1.68 3.2 0 2.16 8.79 5.31 11.95 14.1 14.11 1.68 0.41 1.68 2.78 0 3.19z"/>
			<path id="&lt;Path&gt;" class="s2" d="m-2060.53 307.58c-10.23 2.27-13.43 5.47-15.7 15.71-0.31 1.38-2.28 1.38-2.59 0-2.28-10.24-5.48-13.44-15.71-15.71-1.39-0.31-1.39-2.28 0-2.59 10.23-2.28 13.43-5.48 15.71-15.71 0.31-1.39 2.28-1.39 2.59 0 2.27 10.23 5.47 13.43 15.7 15.71 1.39 0.31 1.39 2.28 0 2.59z"/>
			<path id="&lt;Path&gt;" class="s3" d="m-2590.98 250.23c0 6.6-5.35 11.95-11.95 11.95-6.6 0-11.95-5.35-11.95-11.95 0-6.59 5.35-11.94 11.95-11.94 6.6 0 11.95 5.35 11.95 11.94z"/>
			<path id="&lt;Path&gt;" class="s3" d="m-2934.18 978.58c0 6.6-5.35 11.95-11.95 11.95-6.6 0-11.95-5.35-11.95-11.95 0-6.6 5.35-11.95 11.95-11.95 6.6 0 11.95 5.35 11.95 11.95z"/>
			<path id="&lt;Path&gt;" class="s4" d="m-2656.32 1089.17c0 6.6-5.35 11.95-11.95 11.95-6.6 0-11.95-5.35-11.95-11.95 0-6.6 5.35-11.95 11.95-11.95 6.6 0 11.95 5.35 11.95 11.95z"/>
			<path id="&lt;Path&gt;" class="s1" d="m-2338.57 723.66c0 6.37-5.17 11.54-11.54 11.54-6.37 0-11.54-5.17-11.54-11.54 0-6.37 5.17-11.54 11.54-11.54 6.37 0 11.54 5.17 11.54 11.54z"/>
			<path id="&lt;Path&gt;" class="s6" d="m-2305.99 435.52c13.28-3.39 18.27-8.38 21.66-21.66 0.73-2.83 4.76-2.83 5.48 0 3.39 13.28 8.38 18.27 21.66 21.66 2.83 0.73 2.83 4.75 0 5.48-13.28 3.39-18.27 8.38-21.66 21.66-0.72 2.83-4.75 2.83-5.48 0-3.39-13.28-8.38-18.27-21.66-21.66-2.83-0.73-2.83-4.75 0-5.48z"/>
		</g>
	</g>
</svg>